<svg xmlns="http://www.w3.org/2000/svg" viewBox="0 0 352.32 345.32"><defs><style>.cls-1{fill:#fff;}</style></defs><title>Asset 1</title><g id="Layer_2" data-name="Layer 2"><g id="Layer_1-2" data-name="Layer 1"><path class="cls-1" d="M2.75,87c.79,1.21,1.39,2.13,2,3Q30,127.9,55.23,165.69c1.47,2.19,1.64,3.63.08,5.95C37.12,198.69,19.1,225.85.95,252.92c-1.24,1.85-1.28,3.09,0,5q28.39,42.36,56.58,84.85a5,5,0,0,0,4.83,2.57q41.9-.12,83.79,0a5.29,5.29,0,0,0,5.07-2.68c16.85-25.43,33.82-50.78,50.67-76.2a5,5,0,0,1,4.79-2.59c27.23.09,54.47,0,81.7.09a4.54,4.54,0,0,0,4.36-2.28q29.27-44.1,58.73-88.08a3.55,3.55,0,0,0,0-4.68Q322.07,125,292.89,81a5,5,0,0,0-4.86-2.5c-28.23.07-56.46,0-84.69.1a5,5,0,0,1-4.83-2.56c-16.24-24.52-32.6-49-48.85-73.47A5,5,0,0,0,144.89,0q-40.55.14-81.1,0A5,5,0,0,0,59,2.57Q35.37,38.23,11.59,73.77Z"/><path d="M2.75,87l8.84-13.27Q35.31,38.19,59,2.57A5,5,0,0,1,63.79,0q40.55.13,81.1,0a5,5,0,0,1,4.77,2.61c16.25,24.51,32.6,49,48.85,73.47a5,5,0,0,0,4.83,2.56c28.23-.08,56.46,0,84.69-.1a5,5,0,0,1,4.86,2.5q29.17,44,58.55,87.84a3.55,3.55,0,0,1,0,4.68q-29.45,44-58.73,88.08a4.54,4.54,0,0,1-4.36,2.28c-27.23-.06-54.47,0-81.7-.09a5,5,0,0,0-4.79,2.59C185,291.86,168,317.21,151.2,342.64a5.29,5.29,0,0,1-5.07,2.68q-41.9-.12-83.79,0a5,5,0,0,1-4.83-2.57Q29.32,300.25.93,257.89c-1.26-1.88-1.22-3.12,0-5,18.15-27.08,36.18-54.24,54.37-81.29,1.56-2.32,1.39-3.76-.08-5.95Q29.89,127.95,4.74,90.08C4.13,89.17,3.54,88.25,2.75,87Zm98.18,78.64c12.07,0,24.14,0,36.21,0a4.58,4.58,0,0,0,4.4-2.28q26.29-39.62,52.75-79.14c1.09-1.63,1.26-2.74.1-4.47Q170.3,43.94,146.43,7.92A4.63,4.63,0,0,0,142,5.63q-37.71.08-75.42,0A4.86,4.86,0,0,0,62,8.13Q36.64,46.38,11.1,84.53c-1.23,1.84-1.31,3.12,0,5q24.74,36.88,49.28,73.9a4.55,4.55,0,0,0,4.38,2.28C76.78,165.64,88.85,165.68,100.92,165.68Zm-88,89.64c.29.51.51,1,.78,1.37q25.12,37.7,50.21,75.42C65,333.83,66.37,334,68.15,334q36.06,0,72.11,0a5,5,0,0,0,4.84-2.55q23.61-35.65,47.43-71.16c1.16-1.73,1.32-2.88.09-4.72Q167,217.4,141.52,179a4.36,4.36,0,0,0-4.11-2.25q-34.71.1-69.42,0a4.6,4.6,0,0,0-4.35,2.4c-6,9.09-12,18.1-18,27.14ZM244.58,247c11.67,0,23.34.06,35-.09a5.36,5.36,0,0,0,3.83-2c16.07-23.9,32-47.89,48-71.81a3,3,0,0,0-.06-4q-23.94-35.78-47.86-71.57a5.33,5.33,0,0,0-3.75-2.11q-35.15-.19-70.3,0a5.36,5.36,0,0,0-3.79,2.07c-16,23.82-31.9,47.72-47.88,71.56-1.07,1.59-1,2.65.06,4.19q23.88,35.64,47.61,71.39a4.61,4.61,0,0,0,4.39,2.32C221.45,247,233,247,244.58,247Z"/></g></g></svg>