<svg xmlns="http://www.w3.org/2000/svg" viewBox="0 0 239.37 373.17"><defs><style>.cls-1{fill:#fefefe;}.cls-2{fill:#ebeff0;}.cls-3{fill:#e2e6e7;}.cls-4{fill:#d7aa89;}.cls-5{fill:#c89e7f;}.cls-6{fill:#473f3c;}.cls-7{fill:#d6766d;}.cls-8{fill:#49403d;}.cls-9{fill:#d6776e;}.cls-10{fill:#544d48;}.cls-11{fill:#cea282;}.cls-12{fill:#d7a988;}.cls-13{fill:#a6adb1;}.cls-14{fill:#9c7761;}.cls-15{fill:#fff;}.cls-16{fill:#8e572a;}.cls-17{fill:#231f20;}.cls-18{fill:#42250d;}.cls-19{fill:#deb490;}.cls-20{fill:#713c1a;}.cls-21{fill:#dfb28b;}.cls-22{fill:#7c4246;}.cls-23{fill:#f7838b;}.cls-24{fill:#fab5b9;}</style></defs><title>Elizabeth</title><g id="Layer_2" data-name="Layer 2"><g id="Layer_1-2" data-name="Layer 1"><path class="cls-1" d="M89.46,212.83l.82.52c.11,10.08-.64,20.13-1,30.19l-7.53,1.73c-1.78-3.06-4-4.27-6.64-3.35s-3.12,3-2.95,5.47A3.55,3.55,0,0,1,70,248.7c-3.85,1.33-7.73,2.62-11.55,4-12,4.47-23.8,9.54-34.26,17.09-5,3.59-10.26,7.3-12.41,13.37-3,8.58-4.13,17.64-5.4,26.62-1,6.91-1.7,13.86-2.49,20.8-.73,6.37-1.47,12.75-2.09,19.14C1.18,356.32.74,362.92.1,369.5c-.31,3.22-.06,3.64,3.16,3.64H163.94q36.25,0,72.5,0c1.87,0,3.45-.16,2.78-2.54-.91-3.25-.63-6.6-.92-9.87q-1.36-15.24-2.91-30.47c-1.26-12.22-2.81-24.39-5.27-36.42-.9-4.42-1.65-9-4.8-12.59a66.22,66.22,0,0,0-11.94-10.5c-9.75-6.73-20.38-11.74-31.24-16.3-5.23-2.19-10.44-4.48-16-5.82.89-2.18.94-4.3-.91-6-1.57-1.43-3.46-1.18-5.32-.47-1.44.56-2.12,1.8-2.77,3.07-2.28-.38-4.3-1.76-6.69-1.76l-.77-19.61c.41.1.82.21,1.15-.18A155.31,155.31,0,0,0,178.42,209c12.5-8.16,22.62-18.38,28.94-32.2,13.75-30.06,17.56-61.35,11.74-93.77-2.22-12.39-5.87-24.43-13.85-34.58-8.2-10.44-18-18.66-31.61-20.72-3.91-.59-5.43-1.75-6.54-5.63-2.16-7.52-8.22-11.92-15-15.08C138.43.72,123.95-1,109.19.54,83.43,3.27,61.47,14.18,43.88,33.22,26.06,52.52,16.76,75.51,16.82,101.81c.05,24.85,7.53,47.61,20.95,68.53C50.39,190,68.37,203,89.15,212.7l.13.14Z"/><path class="cls-2" d="M120,373.14H3.26c-3.22,0-3.47-.43-3.16-3.64.64-6.58,1.08-13.18,1.71-19.76.62-6.39,1.36-12.76,2.09-19.14.79-6.94,1.52-13.89,2.49-20.8,1.27-9,2.36-18,5.4-26.62,2.15-6.07,7.43-9.78,12.41-13.37,10.46-7.55,22.22-12.62,34.26-17.09,3.82-1.42,7.69-2.7,11.55-4a3.55,3.55,0,0,0,2.13-1.31l2,2.73c-3.94,2.92-4.15,4.8-1,8.63.15.18.09.53.13.81-1.92.36-2.6,1.82-2.8,3.48-.27,2.28.92,3.85,3,4.85-3.77,3.16-3.57,5.88.52,9.18-2.88,3.11-2.69,5.62.68,8,.58.41,1.25.6.58,1.43a4.75,4.75,0,0,0-.57,4.85c.64,1.93,2.41,2.39,4.2,2.72-2.38,4.69-.88,7.42,4.16,8-1.54,4.9-.12,6.84,5.44,7.45-.67,4.9,2,7.24,6.86,6,.4,4.74,2.34,6.16,6.84,5,.6-.16,1.1-.44,1.26.42a4.4,4.4,0,0,0,3.47,3.73c2,.48,3.59-.39,4.93-1.87,1.64,3.81,3.58,4.55,7.61,3.08,1.06.9.61,2.13.61,3.21Q120,351,120,373.14Z"/><path class="cls-3" d="M120,373.14q0-22.09,0-44.19c0-1.08.45-2.31-.61-3.21l1.73-2.16c.39,2,1.93,2.75,3.69,3,2.66.37,4-1.55,5.16-3.51,3.95,3.22,7.12,2.16,8.58-2.68,5.09,1.87,7.2.67,8-4.61,1.87.4,3.75.64,5.34-.79s1.53-3.47,1.27-5.45c4.3.41,6.48-1.77,5.9-5.83-.14-1,0-1.29.85-1.69,4.36-2.12,4.79-3.53,2.6-8,4.81-1.3,5.79-4.74,2.45-8.57,4.29-1.85,5.08-5.49,1.79-8.22,0-.28,0-.65.11-.82,3.54-3.81,3.62-4.31.56-8.17-.57-.71-.18-.86.14-1.3,2.69-3.63,2.32-5.61-1.53-8.28,3.28-2.89,3.32-5.63-.12-8-1.55-1.09-.45-1.38.22-2,5.55,1.34,10.76,3.63,16,5.82,10.86,4.55,21.5,9.57,31.24,16.3a66.22,66.22,0,0,1,11.94,10.5c3.15,3.54,3.9,8.17,4.8,12.59,2.46,12,4,24.2,5.27,36.42q1.57,15.23,2.91,30.47c.29,3.28,0,6.62.92,9.87.67,2.38-.91,2.54-2.78,2.54q-36.25-.06-72.5,0Z"/><path class="cls-3" d="M150.44,243.52c2.38,0,4.4,1.38,6.69,1.76-.18,2.8,1.25,4.54,3.86,5.41-3.25,3.86-2.81,6.21,1.39,8.52-3.62,3.45-3.45,5.76.64,8.58-4,3.26-4.1,4.63-.43,8.38a1.7,1.7,0,0,1,.23.5c-3.52,1.18-4.45,3.62-2.58,6.75.31.52,1.57,1.1.19,1.69a4.08,4.08,0,0,0-2.87,3.51c-.18,1.68.67,3,1.46,4.36-4.49.79-5.18,2.15-4,7.41-4.41.52-5.47,1.85-5,6.3-5.08.66-5.57,1.14-6.1,6l0,0c-3.82-1.24-5.2-.75-6.66,2.82-.48,1.17-.75,1.15-1.73.65-2.52-1.28-4.62-.73-5.85,1.91-.54,1.16-1,1-1.88.4-3.22-2.12-5.12-1.47-6.76,2.15a3.27,3.27,0,0,1-1.19-2q0-29.44.06-58.88a61.08,61.08,0,0,0,13.24-2.93c6.62-2.29,12.16-6,16-12Z"/><path class="cls-2" d="M120,259.65q0,29.44-.06,58.88c-2.19-1.68-4.39-2.15-6.61,0-.53.51-1,.52-1.25-.24a4.16,4.16,0,0,0-3.12-3c-1.55-.33-2.79.76-4.17,1.15-1.32-4.6-2.75-5.45-7-4.27l-.24-.24a5.09,5.09,0,0,0-1.39-4.17,4.73,4.73,0,0,0-5-.9c.58-4.66.28-5.15-3.89-6.62-.58-.2-.92-.26-.88-1.08.27-4.93.22-5-3.89-6.73,1.74-3.83,1.42-5-2.2-7.3-.56-.36-.75-.53-.41-1.27,2-4.32,1.75-5.17-2.08-7.47,3.3-3.69,3.09-5.77-.92-8.68,1.82-.92,3.15-2.22,3-4.42a3.86,3.86,0,0,0-3.21-3.8c4.64-2.68,5-5,1.32-8.9a4.88,4.88,0,0,0,3.68-5.32l7.53-1.73a27.87,27.87,0,0,0,13.09,12.16A45.36,45.36,0,0,0,120,259.65Z"/><path class="cls-4" d="M120,259.65a45.36,45.36,0,0,1-17.62-4,27.87,27.87,0,0,1-13.09-12.16c.41-10.06,1.15-20.11,1-30.19l0-.63.22-5.12a2.94,2.94,0,0,1,2,1.4,111.39,111.39,0,0,0,20.2,19c11,8.09,23.05,14,36.53,16.81-3.89,5.95-9.43,9.67-16,12A61.08,61.08,0,0,1,120,259.65Z"/><path class="cls-5" d="M149.25,244.77c-13.48-2.78-25.52-8.72-36.53-16.81a111.39,111.39,0,0,1-20.2-19,2.94,2.94,0,0,0-2-1.4l-.07-4a3,3,0,0,1,2.07,1.36,56.39,56.39,0,0,0,9,7.74c5.4,3.86,11.11,7.09,18,7.47,3.19.93,6.11,0,8.94-1.34A57.25,57.25,0,0,0,145.86,206c1.08-1.13,1.92-2.63,3.66-3l.15,20.9q.39,9.81.77,19.61Z"/><path class="cls-6" d="M149.67,223.9q-.08-10.45-.15-20.9a4.73,4.73,0,0,1,.6-1.26c8.47-9.09,15.62-19.2,22.41-29.57.81.63.31,1.32.14,2.05-3.67,15.93-10.28,30.59-18.91,44.41-1,1.65-2.5,3.07-2.94,5.07C150.49,224.11,150.08,224,149.67,223.9Z"/><path class="cls-7" d="M162.82,276.67a1.7,1.7,0,0,0-.23-.5c-3.67-3.75-3.6-5.12.43-8.38-4.09-2.82-4.26-5.13-.64-8.58-4.2-2.31-4.64-4.66-1.39-8.52-2.61-.87-4-2.62-3.86-5.41.65-1.27,1.32-2.51,2.77-3.07,1.85-.71,3.74-1,5.32.47,1.85,1.68,1.8,3.81.91,6-.67.57-1.78.86-.22,2,3.45,2.42,3.41,5.16.12,8,3.85,2.68,4.23,4.66,1.53,8.28-.33.44-.71.58-.14,1.3,3.07,3.86,3,4.36-.56,8.17-.15.17-.08.54-.11.82C165.52,276.41,164.15,276.71,162.82,276.67Z"/><path class="cls-8" d="M90.4,203.57l.07,4-.22,5.12-.79.11-.19,0-.13-.14c-1.28-3.38-4.22-5.49-6.32-8.24a118.91,118.91,0,0,1-17.9-32.71c-.23-.65-.48-1.25.09-1.83a211.22,211.22,0,0,0,19.06,26.45C86.17,198.78,88.79,200.74,90.4,203.57Z"/><path class="cls-9" d="M81.71,245.26A4.88,4.88,0,0,1,78,250.58c3.68,3.86,3.32,6.22-1.32,8.9l-3.49.07c0-.27,0-.63-.13-.81-3.16-3.83-2.95-5.71,1-8.63l-2-2.73c-.17-2.45.4-4.59,2.95-5.47S79.93,242.2,81.71,245.26Z"/><path class="cls-10" d="M89.46,212.83l.79-.11,0,.63Z"/><path class="cls-11" d="M172.53,172.19c-6.79,10.37-13.93,20.47-22.41,29.57a4.73,4.73,0,0,0-.6,1.26c-1.73.36-2.58,1.87-3.66,3a57.25,57.25,0,0,1-17.52,12.79c-2.82,1.3-5.75,2.27-8.94,1.34q0-57.49,0-115c0-1.09.44-2.31-.59-3.23,9.56-4.88,18.89-10.11,27.23-17a48.1,48.1,0,0,0,7.72-7.55c1.71-2.21,2.48-1.32,3.72.24a83.59,83.59,0,0,1,13.3,24.05,105.42,105.42,0,0,1,5.9,30c.68,12-.65,23.84-2.54,35.64A14.71,14.71,0,0,1,172.53,172.19Z"/><path class="cls-12" d="M118.8,101.93c1,.92.58,2.14.59,3.23q0,57.49,0,115c-6.87-.38-12.58-3.61-18-7.47a56.39,56.39,0,0,1-9-7.74,3,3,0,0,0-2.07-1.36c-1.62-2.83-4.24-4.79-6.32-7.21A211.22,211.22,0,0,1,65,169.91c-3.11-5.6-3.88-11.85-4.75-18-1.41-10-1.3-20,1.47-29.88a23.26,23.26,0,0,1,2.37-5.76,3.15,3.15,0,0,0,4.45-1c16.62-.78,32.25-5.42,47.35-12.12C116.87,102.7,117.84,102.33,118.8,101.93Z"/><path class="cls-13" d="M68.57,115.24a3.15,3.15,0,0,1-4.45,1L54.6,84.7c-.55-1.81-1-3.65-1.67-5.43-.51-1.4-.43-2.27,1.19-2.81s2.34.12,2.81,1.67q5.15,17,10.41,34A8.21,8.21,0,0,0,68.57,115.24Z"/><path class="cls-7" d="M73.22,259.55l3.49-.07a3.86,3.86,0,0,1,3.21,3.8c.18,2.2-1.15,3.49-3,4.42,4,2.9,4.22,5,.92,8.68,3.84,2.3,4.11,3.15,2.08,7.47-.35.74-.15.9.41,1.27,3.62,2.33,3.95,3.47,2.2,7.3,4.11,1.78,4.15,1.8,3.89,6.73,0,.82.29.88.88,1.08,4.17,1.46,4.47,2,3.89,6.62a4.73,4.73,0,0,1,5,.9,5.1,5.1,0,0,1,1.39,4.17c-.22.15-.38.32-.08.53,0,0,.21-.19.31-.29,4.21-1.18,5.64-.33,7,4.27,1.38-.39,2.62-1.48,4.17-1.15a4.16,4.16,0,0,1,3.12,3c.27.76.72.75,1.25.24,2.21-2.11,4.41-1.64,6.61,0a3.27,3.27,0,0,0,1.19,2q0,1.52,0,3l-1.73,2.16c-4,1.47-6,.73-7.61-3.08-1.35,1.49-3,2.36-4.93,1.87a4.4,4.4,0,0,1-3.47-3.73c-.16-.86-.66-.58-1.26-.42-4.5,1.21-6.44-.22-6.84-5-4.83,1.28-7.53-1.06-6.86-6-5.57-.61-7-2.56-5.44-7.45-5-.55-6.53-3.28-4.16-8-1.78-.34-3.55-.8-4.2-2.72a4.75,4.75,0,0,1,.57-4.85c.68-.82,0-1-.58-1.43-3.37-2.37-3.56-4.88-.68-8-4.09-3.29-4.29-6-.52-9.18-2-1-3.23-2.57-3-4.85C70.62,261.37,71.3,259.91,73.22,259.55Z"/><path class="cls-7" d="M121.08,323.58q0-1.52,0-3c1.64-3.62,3.54-4.27,6.76-2.15.92.6,1.33.76,1.88-.4,1.23-2.64,3.32-3.2,5.85-1.91,1,.5,1.25.53,1.73-.65,1.46-3.57,2.84-4.07,6.66-2.82a.94.94,0,0,0,.12.2s.1,0,.15,0l-.3-.16c.53-4.83,1-5.31,6.1-6-.43-4.45.63-5.78,5-6.3-1.21-5.26-.52-6.61,4-7.41-.8-1.38-1.65-2.67-1.46-4.36a4.08,4.08,0,0,1,2.87-3.51c1.38-.59.12-1.17-.19-1.69-1.87-3.13-.95-5.57,2.58-6.75,1.33,0,2.71-.25,3.92.57,3.29,2.73,2.5,6.36-1.79,8.22,3.34,3.83,2.36,7.28-2.45,8.57,2.19,4.45,1.76,5.86-2.6,8-.83.4-1,.72-.85,1.69.58,4.06-1.6,6.23-5.9,5.83.26,2,.39,4-1.27,5.45s-3.47,1.19-5.34.79c-.84,5.28-3,6.48-8,4.61-1.46,4.85-4.63,5.91-8.58,2.68-1.17,2-2.49,3.89-5.16,3.51C123,326.33,121.47,325.6,121.08,323.58Z"/><path class="cls-2" d="M97.79,312.15c-.11.1-.29.31-.31.29-.3-.21-.14-.38.08-.53Z"/><path class="cls-3" d="M143.93,312.66l.3.16c-.05,0-.12,0-.15,0a.94.94,0,0,1-.12-.2Z"/><path class="cls-14" d="M134.58,131.7s1.05-15.41,17.37-15.34c15.7,0,16.08,10.43,16.08,10.43Z"/><path class="cls-15" d="M134.55,132.85s4.89-12.08,15.44-12.08,13,8.25,14.68,9-4.28,5-14.06,5.5S133.65,134.68,134.55,132.85Z"/><circle class="cls-16" cx="149.71" cy="128.08" r="7.71"/><circle class="cls-17" cx="149.71" cy="128.08" r="5.49"/><path class="cls-18" d="M146.17,133.28s3.54,2.95,9.12-1.1C155.28,132.18,151.39,138.14,146.17,133.28Z"/><path class="cls-17" d="M154,135s7.9-2,10.3-4.29C164.33,130.67,165.1,132.88,154,135Z"/><path class="cls-17" d="M159.89,125.67s6.66,4,2.93,6.06l2.13-1.05.73-2.36Z"/><path class="cls-17" d="M168,126.79s-7.29-8.94-18.32-7.65c-12.14,1.42-15.24,12.92-15.24,12.92s4.35-10.2,15.24-10.09c5.58.1,12.92,5,14.42,7.38a12.16,12.16,0,0,0-.73-2.17l1.55.91Z"/><path class="cls-19" d="M135.3,134.06a41.27,41.27,0,0,0,28.83-2.24S151.94,139.81,135.3,134.06Z"/><path class="cls-17" d="M165.85,130.67a9.55,9.55,0,0,1,4.68,1,28.68,28.68,0,0,0-6.28,0Z"/><path class="cls-17" d="M162.55,132.14a6.55,6.55,0,0,1,4,.41,37.54,37.54,0,0,0-5.21.27Z"/><path class="cls-17" d="M163.17,128.08s2.41,2.32,0,3.67c-2,1.11-3.82,2-3.82,2s10.25-3,13.53-8.12a12.69,12.69,0,0,1-10,.58C160.94,125.51,163.17,128.08,163.17,128.08Z"/><circle class="cls-15" cx="145.08" cy="127.33" r="2.4"/><path class="cls-20" d="M157.42,105.93c-9.09-2-24.61.47-23.94,6.82,0,0,18-7,26.41-4s11.07,4.66,13.85,6.56c0,0-7.61-7.44-16.32-9.36"/><path class="cls-14" d="M106.48,131.92s-1.05-15.41-17.37-15.33C73.42,116.58,73,127,73,127Z"/><path class="cls-15" d="M106.51,133.07S101.62,121,91.07,121s-13,8.25-14.68,9,4.28,5,14.06,5.5S107.41,134.9,106.51,133.07Z"/><circle class="cls-16" cx="91.35" cy="128.31" r="7.71"/><circle class="cls-17" cx="91.91" cy="128.31" r="5.49"/><path class="cls-18" d="M94.89,133.5s-3.54,2.94-9.12-1.1C85.78,132.4,89.67,138.36,94.89,133.5Z"/><path class="cls-17" d="M87,135.18s-7.9-2-10.3-4.29C76.74,130.89,76,133.1,87,135.18Z"/><path class="cls-17" d="M81.17,125.89s-6.66,4-2.93,6.06l-2.13-1.05-.74-2.36Z"/><path class="cls-17" d="M73,127s7.29-8.94,18.32-7.65c12.14,1.42,15.24,12.91,15.24,12.91s-4.35-10.2-15.24-10.09c-5.58.1-12.92,5-14.42,7.38a12.35,12.35,0,0,1,.73-2.17l-1.55.91Z"/><path class="cls-19" d="M105.76,134.28A41.28,41.28,0,0,1,76.93,132S89.12,140,105.76,134.28Z"/><path class="cls-17" d="M75.21,130.89a9.56,9.56,0,0,0-4.68.95,29.08,29.08,0,0,1,6.28,0Z"/><path class="cls-17" d="M78.51,132.36a6.52,6.52,0,0,0-4,.4,37.79,37.79,0,0,1,5.21.27Z"/><path class="cls-17" d="M77.9,128.3s-2.42,2.32,0,3.67c2,1.12,3.81,2,3.81,2s-10.25-3-13.53-8.12a12.71,12.71,0,0,0,10,.59C80.12,125.74,77.9,128.3,77.9,128.3Z"/><circle class="cls-15" cx="87.03" cy="127.33" r="2.4"/><path class="cls-20" d="M107.59,113s-18-7-26.41-4-11.07,4.66-13.85,6.56c0,0,7.6-7.44,16.32-9.36C92.73,104.14,108.25,106.63,107.59,113Z"/><path class="cls-21" d="M113.41,148.79c-2.88,5.43,3.83,10.88,7.36,14.4,0,0-7.25-8.54-5.76-12.8"/><path class="cls-22" d="M96,175.12s29.23,4.77,46.46.08c0,0-7.72,12-23.08,11.84S96,175.12,96,175.12Z"/><path class="cls-23" d="M95.84,175.12a59.16,59.16,0,0,0,7.82,5.5A33.68,33.68,0,0,0,133.83,182c6.38-3.71,8.65-6.78,8.65-6.78a75.21,75.21,0,0,1-4.77,8c-1.83,2.34-16.66,18.08-35.44,1.33C98.73,181.25,97,176.5,95.84,175.12Z"/><path class="cls-15" d="M99.31,175.89s5.5,6.05,20.43,5.64c10.45-.29,18.1-2.51,20.21-5.72Z"/><path class="cls-23" d="M130.94,174.09c-4.37-2-6.92-2.76-11.71-.32-4.26-1.5-5.76-2-10.24-.27s-13.14,1.62-13.14,1.62l.73,0h0a89.16,89.16,0,0,0,46,0S135.65,176.19,130.94,174.09Z"/><path class="cls-24" d="M107.3,182.36c-.29-.16,14.59-2.17,25.68,0A26.13,26.13,0,0,1,107.3,182.36Z"/><path class="cls-10" d="M89.15,212.7C68.37,203,50.39,190,37.77,170.35c-13.42-20.93-20.89-43.68-20.95-68.53-.06-26.3,9.24-49.3,27.06-68.59C61.47,14.18,83.43,3.27,109.19.54,123.95-1,138.43.72,152.07,7c6.82,3.15,12.88,7.56,15,15.08,1.11,3.88,2.63,5,6.54,5.63C187.21,29.8,197.05,38,205.25,48.46c8,10.16,11.63,22.19,13.85,34.58,5.81,32.42,2,63.71-11.74,93.77-6.32,13.82-16.44,24-28.94,32.2a155.3,155.3,0,0,1-27.6,14.72c.43-2,1.91-3.43,2.94-5.07,8.63-13.82,15.25-28.48,18.91-44.41.17-.73.67-1.42-.14-2.05a14.71,14.71,0,0,0,1.61-4.82c1.88-11.81,3.22-23.63,2.54-35.64a105.42,105.42,0,0,0-5.9-30,83.59,83.59,0,0,0-13.3-24.05c-1.24-1.56-2-2.45-3.72-.24A48.1,48.1,0,0,1,146,85c-8.33,6.85-17.67,12.08-27.23,17-1,.39-1.93.76-2.88,1.18-15.1,6.7-30.73,11.34-47.35,12.12a8.21,8.21,0,0,1-1.23-3.14q-5.23-17-10.41-34c-.47-1.55-1.08-2.24-2.81-1.67s-1.7,1.41-1.19,2.81c.65,1.78,1.12,3.62,1.67,5.43l9.51,31.55A23.26,23.26,0,0,0,61.74,122c-2.77,9.85-2.88,19.86-1.47,29.88.87,6.16,1.64,12.41,4.75,18-.57.59-.33,1.18-.09,1.83a118.91,118.91,0,0,0,17.9,32.71C84.93,207.2,87.87,209.32,89.15,212.7Z"/><path class="cls-17" d="M154.14,147.86c-16.93,0-28.76-7.41-28.76-18,0-9.73,8.21-20.2,26.25-20.2,16,0,25.59,6.79,25.59,18.15C177.22,133.83,175,147.86,154.14,147.86Zm-2.51-36c-16.53,0-24.06,9.33-24.06,18,0,9.32,10.92,15.82,26.56,15.82,18.17,0,20.89-11.2,20.89-17.87C175,117.8,166.28,111.84,151.63,111.84Z"/><path class="cls-17" d="M82.33,147.86c-20.83,0-23.08-14-23.08-20.06,0-11.36,9.56-18.15,25.59-18.15,18,0,26.25,10.47,26.25,20.2C111.09,140.45,99.27,147.86,82.33,147.86Zm2.51-36c-14.65,0-23.4,6-23.4,16,0,6.67,2.71,17.87,20.89,17.87,15.64,0,26.56-6.51,26.56-15.82C108.89,121.17,101.37,111.84,84.84,111.84Z"/><path class="cls-17" d="M110.51,128.92s8.66-3.32,15.35,0l.32,2.81a37.56,37.56,0,0,0-15.8.12Z"/><path class="cls-17" d="M173.74,118.91s3.81-3.36,4.77,1.76-2.38,14.52-2.38,14.52S177.09,120.49,173.74,118.91Z"/><path class="cls-17" d="M62.84,119.12s-3.81-3.36-4.77,1.76,2.38,14.52,2.38,14.52S59.49,120.7,62.84,119.12Z"/></g></g></svg>