<svg xmlns="http://www.w3.org/2000/svg" viewBox="0 0 523.69 474.5"><defs><style>.cls-1{fill:#fff;}</style></defs><title>ex_logo_2</title><g id="Layer_2" data-name="Layer 2"><g id="Layer_1-2" data-name="Layer 1"><g id="Yg6JJc"><path class="cls-1" d="M465,439c-19.28-1.85-38.64-3.41-55.58-15.86l-8.74,5.12,1.09-10.56c-6.35-.55-8.2-5.56-9.27-11-2.42-12.28-4.81-24.57-6.89-36.91A22.33,22.33,0,0,1,386.71,359c6.28,10.12,12.64,20.2,18.8,30.39,4.78,7.9,12.15,8.5,17.32.75s9.49-15.69,14.91-23.18l-7,18.47,1.13,1.7,12.77-4.51c-5,4.78-8.87,8.61-12.91,12.23-3.07,2.76-3.88,5.28-2.27,9.6a26.23,26.23,0,0,0,12.26,14.72c8.59,5,16.09,11.88,24.06,18Z"/><path class="cls-1" d="M112,110.84l-6.91,6.35c13,12.73,19.58,30.86,37.06,39.34l-1.2,1.75-26.12-11.5-.81,3.6L89.23,124.54,59.4,136.93l9.22-6.64-.6-1.8-12.18,2.93-.23-.68c6.17-3,12.39-5.86,18.5-9,4.9-2.5,8-5.23,3.55-11.36-3.69-5.12-5.92-11.29-8.86-17.13l.82-.08-4.42-28,1.74-.54c.86,1.28,1.69,2.58,2.6,3.83,8.75,12,17.41,24.06,26.4,35.88,1.13,1.49,4.44,2.79,6,2.2C106.6,104.81,109.36,106.48,112,110.84Z"/><path class="cls-1" d="M299.16,457.45c3.26,2.43,6.2,5,9.5,7,3.13,1.85,6.65,3,10.9,4.92H309.8l2.14,5.17c-7.88-7.06-17.35-5.43-26.56-6.09-5.52-.4-11-3-16.11-5.5-1-.49-.77-7.06.32-7.54,5.17-2.25,4.77-6.5,3.34-9.74-5.62-12.68-.56-24.54,2-36.58,1.17-5.42,3-10.7,4.55-16l1.68-.06,4.12,47.61L340.4,418l1.22,2.18C322.61,427,310.64,441.64,299.16,457.45Z"/><path class="cls-1" d="M39.4,258.68l1.07-7.38-.92-.3-7,14.36h1.09c1-11.21,2.12-22.41,2.94-33.64.49-6.65-3-9.12-9.13-6.25-8.95,4.2-17.66,8.89-27.47,12.93,8.86-10.27,17.39-20.87,26.81-30.6,2.61-2.7,7.88-2.83,12.29-2.83l7.27-11.07,5.83,13.94c5.35-4.69,9.31-.59,12.29,4.06,7.85,12.25,15.27,24.78,22.86,37.2l-1.68,1c-6.34-4.92-12.63-9.9-19-14.74-13.06-9.89-19.92-2.34-23,9.89-1.14,4.56-1.88,9.21-2.81,13.82Z"/><path class="cls-1" d="M50.73,330.62c3.46-6.12,9.17-6.93,15.24-6.38,9.14.82,18.26,1.86,27.4,2.8l.65,2.21L71.63,343l37.94,20.88-.57,1.66L64.7,359.06l-.65,1,12.58,9c-9.26-.18-12.11,5.74-14.89,12.81-1.47-4.22-3.44-7.78-3.86-11.51-.78-6.85-5.53-11.27-8.53-16.8A174.34,174.34,0,0,1,38.91,329.1c-1.45-4.05,1.88-4.87,4.89-3.62C46.08,326.43,47.91,328.46,50.73,330.62Z"/><path class="cls-1" d="M481.46,248.52,486.11,236l-4.54,37.51c15.89.31,28.58-6.31,42.12-10.25-14.22,10.47-23.93,26.94-43.37,30.1-3.63.59-6.62,5.06-10.64,8.35l-4.75-9.36c-9.35,3.07-17.61-1.14-25.53-7-7.72-5.75-15.64-11.22-22.67-18.1,6.28,2.27,12.52,4.65,18.84,6.8,11.08,3.76,22.16,5.21,31.75-3.37,3.18-2.85,6.25-6.75,7.42-10.74,2.39-8.18,3.47-16.75,5.28-26.17v14.45Z"/><path class="cls-1" d="M391.34,70.62,405.39,41.5l1.35,1.28,5.24-4.7,1.49,3.66L418,36.2c-6.2,9.74-6.4,20.51-6.63,31.3,0,1.28.08,3.07-.67,3.74-5.95,5.34-5.45,10.4,2.51,16.43-4.33.7-6.58,1.34-8.85,1.38-3.47.06-6.6.24-6.73,4.79-.21,7.33-.83,14.68-.42,22,.29,5.24,2,10.41,3.2,16.35-11-12.46-18.06-26-17.09-42.34.52-8.67-2.39-15.32-7.53-21.48-4.13-5-8.65-9.59-11.57-12.8,4.48.54,11.09,2.74,17.17,1.73,8.64-1.44,7.84-9.69,8-16.56l1.85.3L388.4,69.82Z"/><path class="cls-1" d="M304.09,26.55l11.46,4.62-.08,2.33c-7.19,1.58-10.52,7-14.52,12.21-2.45,3.16-6.86,5.4-10.83,6.66C277.85,56.27,265.38,59.49,253,63l-.88-2,29.17-16.57c-9.9-7.82-19.32-.82-29.17-1.46,1.38-.61,2.08-.89,2.76-1.22a11.22,11.22,0,0,0,2.84-1.5c.71-.66,1-1.73,2-3.52l-10.49-1.9C260.59,32.38,275.36,38,282.85,22L257.43,11.4l.34-1.68c4.07.34,8.17.44,12.2,1.06,10.22,1.56,20.57,2.72,30.55,5.26C308.24,18,308.58,20.69,304.09,26.55Z"/><path class="cls-1" d="M406,151.22l51.69,4.16-3.08-19.62c3.27,1.61,2.2,10.53,9.33,5.93.22.4.54.72.56,1.07.7,11.68,7.64,18.94,20.56,22.27a144.94,144.94,0,0,1,23.2,8.14c-14.33,3.17-28.51,6.17-42.86,1.74-1.38.91-4.27,3.42-4.74,3-2.09-1.75-3.5-4.32-4.58-5.81C436.74,171.24,420.58,163.53,406,151.22Z"/><path class="cls-1" d="M166.09,439.33l17.72,20.75-5.92-2.66,4,5.11-.45.67L153,442.61c-5.86,7.56,2.28,13.69,2.64,22.5-3.73-4.8-7.18-8.1-9.23-12.11-4.2-8.22-7.81-16.75-11.34-25.29-1.3-3.13-1.48-6.48,3.16-7.62.69-.17,1-1.67,1.66-2.28,1.56-1.35,3.43-3.79,4.89-3.6,22.85,3,40.66,15.4,57,30.38l-.95,1.88c-6.12-2.95-12.23-5.92-18.37-8.83C177.31,435.2,172.14,432.63,166.09,439.33Z"/><path class="cls-1" d="M165.34,0c5.07,6.67,9.48,15.91,16.76,21.22,9.09,6.63,10.5,16.42,15,24.93,1.73,3.29,3.41,4,6.83,4.32,2.3.19,4.4,2.65,6.59,4.09-1.77,1.75-3.53,3.53-5.35,5.24-.25.24-1,0-1.24.19-9.28,8.91-19.93,7.35-31.36,5.41-6.2-1.05-13,1.56-19.55,2.52l13-5.44-13.74-1.69V59.49h31.11c-4.1-8.74-7.27-15.75-10.67-22.65-2.62-5.3-7.21-10.24-7.89-15.72C163.86,14,160,6.38,165.34,0Z"/></g></g></g></svg>