<svg xmlns="http://www.w3.org/2000/svg" viewBox="0 0 582.65 106.98"><defs><style>.cls-1{font-size:83.97px;font-family:STIXGeneral-Regular, STIXGeneral;}.cls-2{letter-spacing:-0.02em;}</style></defs><title>ex_logo_black</title><g id="Layer_2" data-name="Layer 2"><g id="Layer_1-2" data-name="Layer 1"><g id="Yg6JJc"><path d="M79.64,81.6C60.37,79.75,41,78.19,24.06,65.74l-8.74,5.12,1.09-10.56c-6.35-.55-8.2-5.56-9.27-11C4.72,37.06,2.33,24.77.25,12.43A22.33,22.33,0,0,1,1.39,1.59C7.66,11.72,14,21.79,20.19,32c4.78,7.9,12.15,8.5,17.32.75S47,17,52.42,9.55L45.39,28l1.13,1.7,12.77-4.51c-5,4.78-8.87,8.61-12.91,12.23-3.07,2.76-3.88,5.28-2.27,9.6A26.23,26.23,0,0,0,56.37,61.76c8.59,5,16.09,11.88,24.06,18Z"/></g><text class="cls-1" transform="translate(113.51 69.78)">ExCollecti<tspan class="cls-2" x="359.22" y="0">v</tspan><tspan x="399.19" y="0">es</tspan></text></g></g></svg>