<?xml version="1.0" encoding="utf-8"?>
<!-- Generator: Adobe Illustrator 21.0.2, SVG Export Plug-In . SVG Version: 6.00 Build 0)  -->
<svg version="1.1" id="Layer_1" xmlns="http://www.w3.org/2000/svg" xmlns:xlink="http://www.w3.org/1999/xlink" x="0px" y="0px"
	 viewBox="0 0 582.7 107" style="enable-background:new 0 0 582.7 107;" xml:space="preserve">
<style type="text/css">
	.st0{fill:#FFFFFF;}
	.st1{font-family:'STIXGeneral-Regular';}
	.st2{font-size:83.97px;}
	.st3{letter-spacing:-1;}
</style>
<title>ex_logo_white</title>
<g id="Layer_2">
	<g id="Layer_1-2">
		<g id="Yg6JJc">
			<path class="st0" d="M79.6,81.6C60.4,79.8,41,78.2,24.1,65.7l-8.7,5.1l1.1-10.6c-6.4-0.5-8.2-5.6-9.3-11
				C4.7,37.1,2.3,24.8,0.2,12.4C-0.3,8.8,0.1,5.1,1.4,1.6C7.7,11.7,14,21.8,20.2,32c4.8,7.9,12.1,8.5,17.3,0.8S47,17,52.4,9.6
				l-7,18.5l1.1,1.7l12.8-4.5c-5,4.8-8.9,8.6-12.9,12.2c-3.1,2.8-3.9,5.3-2.3,9.6c2.1,6.3,6.5,11.5,12.3,14.7
				c8.6,5,16.1,11.9,24.1,18L79.6,81.6z"/>
		</g>
		<text transform="matrix(1 0 0 1 113.51 69.78)" class="st0 st1 st2">ExCollecti</text>
		<text transform="matrix(1 0 0 1 472.73 69.78)" class="st0 st1 st2 st3">v</text>
		<text transform="matrix(1 0 0 1 512.7 69.78)" class="st0 st1 st2">es</text>
	</g>
</g>
</svg>
