<svg xmlns="http://www.w3.org/2000/svg" viewBox="0 0 352.55 345.41"><defs><style>.cls-1{fill:#fff;}</style></defs><title>ExCollectives_Logo_White</title><g id="Layer_2" data-name="Layer 2"><g id="Layer_1-2" data-name="Layer 1"><path class="cls-1" d="M0,255.32c.68-1.27,1.25-2.61,2-3.8Q25.48,216.41,49,181.32l6.19-9.23c1.88-2.82,1.89-3.85,0-6.69q-16.93-25.33-33.86-50.67C15.36,105.88,9.48,97,3.54,88.15a1.65,1.65,0,0,1,0-2.19Q27,50.9,50.35,15.81c2.86-4.3,5.74-8.58,8.53-12.92A5.85,5.85,0,0,1,64.29,0q29.93.09,59.87.06c6.83,0,13.66,0,20.5-.07a5.84,5.84,0,0,1,5.4,2.87q24.06,36.27,48.15,72.51a6.55,6.55,0,0,0,6.09,3.26c14-.09,28,0,42,0s27.75,0,41.62-.07a6,6,0,0,1,5.5,2.95q23.24,35,46.56,70,5.64,8.47,11.31,16.92c1.67,2.5,1.68,3.29,0,5.76q-21.84,32.72-43.68,65.44c-4.78,7.17-9.57,14.33-14.27,21.55a5.81,5.81,0,0,1-5.38,2.91c-7.42-.07-14.83,0-22.25,0l-57-.08c-.37,0-.75,0-1.12,0a5.7,5.7,0,0,0-5.69,2.79Q177,304.28,152,341.83a7.21,7.21,0,0,1-6.7,3.58q-41.37-.14-82.74-.06a5.59,5.59,0,0,1-5.09-2.73q-16.88-25.44-33.82-50.85C16.49,281,9.23,270.19,2,259.38a43,43,0,0,1-2-3.81Q0,255.44,0,255.32ZM104.63,5.7c-12.41,0-24.83,0-37.24,0A5.84,5.84,0,0,0,62,8.55C58.56,13.83,55.05,19,51.57,24.27L11.7,84c-1.79,2.68-1.79,3.49,0,6.2,2.59,3.88,5.2,7.74,7.78,11.62Q39.76,132.24,60,162.67a6.22,6.22,0,0,0,5.78,3.07c23.87,0,47.75,0,71.62,0a4.78,4.78,0,0,0,4.31-2.29c.8-1.26,1.65-2.51,2.48-3.75L194,84.87c1.71-2.56,1.71-3.1,0-5.62Q170.56,44,147.07,8.68a6,6,0,0,0-5.57-3C129.21,5.73,116.92,5.7,104.63,5.7Zm-.27,328.37c11.87,0,23.74,0,35.62,0a6.11,6.11,0,0,0,5.6-3q23.32-35.1,46.72-70.15c1.76-2.64,1.76-3.3,0-6q-10.8-16.14-21.59-32.28-14.34-21.51-28.62-43.05a5.54,5.54,0,0,0-5.27-2.84c-2.24.1-4.5.06-6.75.06q-30.62,0-61.24-.06a5.51,5.51,0,0,0-5.06,2.56q-24.68,37.12-49.41,74.21c-1.26,1.89-1.26,1.89,0,3.76q24.61,37,49.18,73.93a5.77,5.77,0,0,0,5.38,2.84C80.7,334,92.53,334.07,104.36,334.07Zm140.26-87v-.13h34.62a5.31,5.31,0,0,0,4.73-2.51q23.56-35.26,47.14-70.49c1.63-2.43,1.63-2.87,0-5.27l-26.85-40.19q-10.1-15.1-20.21-30.2a5.6,5.6,0,0,0-5-2.69c-7.75,0-15.5-.06-23.25-.06-15,0-30.08.07-45.12.06a5.9,5.9,0,0,0-5.31,2.86Q182,133.5,158.5,168.53c-1.66,2.48-1.65,3,0,5.5q6,8.92,12,17.84,17.52,26.29,35,52.61a5.36,5.36,0,0,0,4.89,2.61C221.79,247,233.21,247.07,244.62,247.07Z"/></g></g></svg>