<svg xmlns="http://www.w3.org/2000/svg" viewBox="0 0 662.93 144.34"><defs><style>.cls-1,.cls-3{fill:#fff;}.cls-1,.cls-2{stroke:#fff;stroke-miterlimit:10;stroke-width:1.8px;}.cls-2{fill:none;}.cls-3{isolation:isolate;font-size:128.27px;font-family:Dosis-Regular, Dosis;}</style></defs><title>horizontal-logo</title><g id="Layer_2" data-name="Layer 2"><g id="Layer_1-2" data-name="Layer 1"><g id="Layer_2-2" data-name="Layer 2"><g id="Layer_1_copy" data-name="Layer 1 copy"><path class="cls-1" d="M21.06,82.35a.42.42,0,0,1,0-.16c-.14-.72-.34-.86-1-.63a.55.55,0,0,1-.27,0c-.65-.36-1.31-.7-2-1.08a.79.79,0,0,1-.38-.54,2.51,2.51,0,0,0-.81-1.46c-.16-.14-.34-.25-.5-.36.11-.52.09-.68-.23-.81a.67.67,0,0,1-.43-.86v0a.61.61,0,0,0-.27-.72,1.08,1.08,0,0,1-.54-.74c.56-.61.11-1.15-.11-1.69a3.73,3.73,0,0,0,.68-.5,3.59,3.59,0,0,0,.34-.65,5.34,5.34,0,0,0,.79-.43.8.8,0,0,0,.36-.86c-.09-.34-.36-.43-.65-.5,0,0,0,0,0-.07a4.5,4.5,0,0,0,.11-.59,1.23,1.23,0,0,0-.95-1.44,1.49,1.49,0,0,0-.32,0,.65.65,0,0,0-.7.65.69.69,0,0,0,.29.59,2.48,2.48,0,0,1,.32.25,2.37,2.37,0,0,0-.65,1.42.62.62,0,0,1-.18.34,1,1,0,0,0-.43,1.08,7.2,7.2,0,0,0-.61.56,1.68,1.68,0,0,0-.45,1.28c0,.29-.11.63.14.88s0,.61.14.88l.07.14a4.2,4.2,0,0,1,.16.5,3,3,0,0,0,1.15,2.27,2.27,2.27,0,0,1,.29.36c.14.2.29.43.43.65s.2.32.32.47a6.08,6.08,0,0,0,.61.88,8.23,8.23,0,0,0,2.46,1.73,5.91,5.91,0,0,1,1.22.79,2.87,2.87,0,0,0,1.49.77c.61.09,1.22.16,1.85.2L29,85a1.15,1.15,0,0,1,.47.07l1.78.83c-.09.63.27.9.81,1l.09,0c.36.14.74.25.83.7a.91.91,0,0,0,.11.2c-.07.38-.11.7-.14,1s0,.43,0,.63a.61.61,0,0,1-.52.61A2.84,2.84,0,0,1,30.81,90c-.92-.27-1.85-.59-2.79-.88a4.48,4.48,0,0,0-2.12-.27,3.26,3.26,0,0,1-2-.38l-3.47-1.76a3.11,3.11,0,0,1-.56-.38c-.52-.45-1-.9-1.53-1.35a2.72,2.72,0,0,0-3.11-.23A1.24,1.24,0,0,0,15,87a4.29,4.29,0,0,1,1.15,1.15,2.85,2.85,0,0,0,.25.29,4.19,4.19,0,0,1,.47.63,9.18,9.18,0,0,0,2.23,2.43,1.36,1.36,0,0,1,.43.52,1.37,1.37,0,0,0,.45.43c.27.18.61.32.88.52a5.9,5.9,0,0,0,2.82,1.24l1.6.18c1,.11,1.94.23,2.88.38.72.11.77.2.83.9.11,1.22.23,2.43.38,3.63a23.05,23.05,0,0,0,.72,3.72,7,7,0,0,1,.25,1.19c.16,1.15.25,2.32.45,3.47a51.22,51.22,0,0,1,.68,5.86c0,.47,0,.92-.07,1.4a2,2,0,0,0,.09,1c.2,0,.45,0,.54.09.27.36.7.61.7,1.17a.66.66,0,0,0,.83.65l.23.32c.54-.45.52-.72,0-1.19l-.11-.9c.34-.5.47-.77-.23-1.22.23-.29.11-.65.2-.95a1.2,1.2,0,0,0-.2-1.13.74.74,0,0,1,0-.88,1.62,1.62,0,0,0,.14-1.71,5.43,5.43,0,0,1-.36-1.89,7,7,0,0,0-.32-1.91.69.69,0,0,1,0-.43,1.81,1.81,0,0,0-.11-1.24,2.36,2.36,0,0,1-.23-1.46,1,1,0,0,0-.27-.86.46.46,0,0,1-.14-.34,4.69,4.69,0,0,0-.23-1.58,8,8,0,0,1-.18-1c0-.54,0-1.08-.09-1.6a1.19,1.19,0,0,0-.2-.68,1.33,1.33,0,0,1-.29-1,3,3,0,0,0-.38-1.69.6.6,0,0,1-.07-.27,1,1,0,0,0-.68-1,12.4,12.4,0,0,0-1.31-.36,1.06,1.06,0,0,1-.56-.25,1.48,1.48,0,0,0-1.24-.45,12.64,12.64,0,0,1-1.31,0c-.74-.09-1.46-.23-2.21-.38a1.07,1.07,0,0,1-.5-.27,6.49,6.49,0,0,1-.68-.88l.09-.34,1.94.54a.7.7,0,0,1,.23.11.77.77,0,0,0,.7.11.52.52,0,0,1,.32,0,1.44,1.44,0,0,0,1.35.14.73.73,0,0,1,.79.11,1,1,0,0,0,.81.29,1.21,1.21,0,0,0,1.35.72l.68,0,1.8-.16a2.82,2.82,0,0,0,1.46-.47,1.68,1.68,0,0,1,.27-.16c.72.32.9.23,1.35-.5l.09,0a.44.44,0,0,0,.16,0,.7.7,0,0,0,.68-.61.76.76,0,0,0-.5-.77c-.14-.07-.29-.11-.47-.18,0-.38.07-.77.09-1.13a1.14,1.14,0,0,1,.07-.38c.29-.5-.29-.88-.16-1.35,0-.07,0-.18-.11-.27a.44.44,0,0,0-.2-.2,1.6,1.6,0,0,1-.65-.63c0-.11-.18-.18-.29-.25a3.05,3.05,0,0,1-.27-.27A2.13,2.13,0,0,0,32.7,84a8.13,8.13,0,0,1-1-.5,8.94,8.94,0,0,0-2.61-.88,1,1,0,0,0-.56,0,1.51,1.51,0,0,1-1.42-.2,9.17,9.17,0,0,0-2.91-.61l.52.59-1.26.36a1.8,1.8,0,0,0-1.1-.43A6.11,6.11,0,0,1,21.06,82.35ZM94.17,96.49l.18-.72a2,2,0,0,0,.14-.52,2.16,2.16,0,0,1,.41-1.17,2.65,2.65,0,0,0,.25-.43.7.7,0,0,0-.56-1.1.72.72,0,0,1-.52-.36,1.79,1.79,0,0,0-1.17-.81,4,4,0,0,0-2.77.52,4.17,4.17,0,0,1-1.62.61c-.27,0-.54.14-.81.18a1.35,1.35,0,0,0-1.15,1c-.38,1.08-.77,2.14-1.13,3.22a1.67,1.67,0,0,0-.11.56,1.06,1.06,0,0,0,.52,1.08,3.49,3.49,0,0,0,.65.32,19.52,19.52,0,0,0,2.23.68,20.34,20.34,0,0,1,3.63,1.08,15.69,15.69,0,0,0,2.48.74,7.45,7.45,0,0,0,4.64-.36,20.77,20.77,0,0,1,3.09-1.06,4.17,4.17,0,0,0,1.67-.77c.79-.65,1.58-1.28,2.34-2a3.81,3.81,0,0,0,1.19-2.07,2.14,2.14,0,0,0-.43-2,2.52,2.52,0,0,1-.43-.65,1.89,1.89,0,0,0-1.4-1.1c-.29-.07-.59-.09-.86-.16a1.37,1.37,0,0,1-.41-.11,3.67,3.67,0,0,0-2.07-.43,1.44,1.44,0,0,0-.74.23,13.41,13.41,0,0,0-1.22,1,.82.82,0,0,0-.2.95,1.94,1.94,0,0,0,.86,1.08,3.11,3.11,0,0,1,.9.81,1.35,1.35,0,0,0-.9.88,1.36,1.36,0,0,1-.86.63,2.08,2.08,0,0,0-.88.47l-.61.63a.46.46,0,0,1-.34.14l-1.69-.09A3,3,0,0,0,94.17,96.49Z"/><path class="cls-1" d="M170.23,6.55a2.59,2.59,0,0,0-.47,1,5.74,5.74,0,0,1-2.52,3.11,23.6,23.6,0,0,1-2.14,1.06.75.75,0,0,1-.5,0c-.65-.2-1.28-.43-1.94-.65a2.09,2.09,0,0,1-.29-.09l-.34.41L159.11,15a65,65,0,0,0-4.84,7c-.86,1.37-1.62,2.82-2.46,4.21-.56.95-1.15,1.85-1.73,2.77a4.33,4.33,0,0,0-.27.56l.27.14a8.25,8.25,0,0,1,3.2,2.34,2.86,2.86,0,0,1,.74,1.35,2.68,2.68,0,0,0,.29.56,10.5,10.5,0,0,1,.56,1.13c.25.65.14.88-.45,1.24l0,0c0,.54,0,1,.07,1.49a2.18,2.18,0,0,0,.18.54c.14.38.29.74.45,1.13a6.88,6.88,0,0,0,.29.72,6.75,6.75,0,0,1,.86,3.15c0,1,.09,2,0,3a3.34,3.34,0,0,0,.11,1.33,2.36,2.36,0,0,1,.11.68,7.52,7.52,0,0,0,.27,1.42,11.42,11.42,0,0,1,.25,1.53c.14.81.27,1.6.43,2.39a1.63,1.63,0,0,0,1.1,1.22,1.92,1.92,0,0,1,1.22,1.71,1.43,1.43,0,0,1-.2,1.13.52.52,0,0,0-.07.36,4.83,4.83,0,0,0,.29,1.37,11.68,11.68,0,0,1,.54,2.12,30.83,30.83,0,0,1,.52,5.18,15.47,15.47,0,0,0,.5,3.22c.2.92.36,1.85.5,2.77a3.93,3.93,0,0,1,0,1.15.71.71,0,0,1-1.19.45,1.9,1.9,0,0,1-.81-1.33,10.29,10.29,0,0,0-.52-2,1.39,1.39,0,0,0-.59-.61A2.76,2.76,0,0,1,157.6,69a22.35,22.35,0,0,0-1.1-2c-.36-.63-.79-1.24-1.17-1.85a2.79,2.79,0,0,1-.52-1.94,2.66,2.66,0,0,0-.14-.81c-.09-.52-.2-1-.29-1.53l-.07-.43c-.2-.7-.43-1.4-.63-2.09,0-.18-.11-.38-.16-.56a1.54,1.54,0,0,0-1.24-1.17c-.32-.07-.61-.2-.95-.27a6.77,6.77,0,0,0-.9-.09L149.26,56a2.2,2.2,0,0,1-1.13,1.33,1.25,1.25,0,0,1-.16,1.13,8.63,8.63,0,0,0-.79,2.25A6.91,6.91,0,0,1,146,63.38a2,2,0,0,1-.32.29A44,44,0,0,0,141,67.5c-.27.25-.5.52-.74.77a2.9,2.9,0,0,1-.38.36,1.13,1.13,0,0,1-1.35.11,1.3,1.3,0,0,1-.56-1.31,3.56,3.56,0,0,1,.2-.7c.11-.36.23-.72.36-1.06.09-.18.2-.36.32-.54s.2-.18.23-.29a14.49,14.49,0,0,0,.38-1.71.9.9,0,0,0-.16-.54,4,4,0,0,1-.68-1.49c0-.16-.18-.27-.23-.43a2,2,0,0,1-.18-.74.83.83,0,0,0-.16-.56,4.84,4.84,0,0,1-.7-1.55,1.94,1.94,0,0,0-.81-1.22,1.17,1.17,0,0,1-.41-.47,1.64,1.64,0,0,0-1.42-.95.44.44,0,0,1-.18,0c-.59-.43-1.35-.34-2-.68a1,1,0,0,1-1.37,0,2.45,2.45,0,0,0-1.44-.34,19.73,19.73,0,0,1-2.32-.2c-2.16-.2-4.3-.61-6.49-.77a21.52,21.52,0,0,1-5.45-1,8,8,0,0,0-3.65-.43,22.89,22.89,0,0,0-2.48.47c-.68.14-1.33.34-2,.47a1.11,1.11,0,0,0-.81.45c-.11.18-.38.25-.54.38l-2,1.76-.61.47s-.16,0-.18.09c-.32.63-1,.68-1.53,1a3.54,3.54,0,0,1-1.15.34.85.85,0,0,1-.9-.45,5.18,5.18,0,0,0-.95-1,13.32,13.32,0,0,1-1.08-1.17,5.07,5.07,0,0,0-1.62-1.31c-.81-.43-1.6-.88-2.39-1.33a2.55,2.55,0,0,0-1.22-.29c-2-.09-3.92-.16-5.9-.23a1.74,1.74,0,0,0-1,.25,1,1,0,0,1-.74.09,3.12,3.12,0,0,0-1.44,0,3.76,3.76,0,0,1-2-.11,1,1,0,0,1-1.1.43.82.82,0,0,0-.52.09,2.3,2.3,0,0,1-1.22.23,2.45,2.45,0,0,0-.9.16c-.9.25-1.8.45-2.7.63-1.6.32-3.22.56-4.84.88a7,7,0,0,0-3,1.35,1.61,1.61,0,0,1-1.44.41.29.29,0,0,0-.14,0s0,0-.07,0a1.38,1.38,0,0,1,.16.32.47.47,0,0,1-.23.63.42.42,0,0,1-.18,0,1.68,1.68,0,0,0-.9.43c-.34.27-.65.59-1,.88a2.9,2.9,0,0,1-.47.43,3,3,0,0,0-1,1.1,9.23,9.23,0,0,1-2,2.18.5.5,0,0,0-.18.61,3.64,3.64,0,0,1,0,2.3c0,.16-.09.32-.14.5a2.76,2.76,0,0,1,1.42.72,8.77,8.77,0,0,0,2.32,1.22,2.18,2.18,0,0,0,.86.09,17.48,17.48,0,0,0,5-1.13c.45-.16.88-.36,1.31-.54a1.63,1.63,0,0,0,.54-.32,3,3,0,0,1,1.46-.72,9.67,9.67,0,0,0,1.13-.43,24.41,24.41,0,0,1,4-1.55A13.68,13.68,0,0,1,82,62l2.14.23a4.82,4.82,0,0,0,2-.2c.32-.11.63-.18.95-.27a1,1,0,0,1,.92.14c.43.27.83.59,1.24.88.7.52,1.37,1,2.07,1.53a2.76,2.76,0,0,0,2.91.23.68.68,0,0,0,.43-.36.36.36,0,0,1,.18-.23c.41-.2.56-.59.81-.92a3.82,3.82,0,0,1,.74-.61,1.79,1.79,0,0,0,.38-.34c.34-.43.63-.86,1-1.28a3.65,3.65,0,0,0,.61-.92,1.74,1.74,0,0,1,.59-.63,2.78,2.78,0,0,1,1.51-.47,1.47,1.47,0,0,0,1.1-.41.61.61,0,0,1,.92,0,.72.72,0,0,0,.5.23,3.59,3.59,0,0,1,.86.16,7.62,7.62,0,0,0,.77.18,2.12,2.12,0,0,1,1.28.54,9.08,9.08,0,0,1,1.49,1.6,9.38,9.38,0,0,0,2.14,2.18,3.17,3.17,0,0,0,.72.38,1.22,1.22,0,0,0,.56.07,12.31,12.31,0,0,1,2.41-.23,11.43,11.43,0,0,0,1.53-.25,7,7,0,0,0,2.3-1,3,3,0,0,1,1.91-.45l2.91.34a2.67,2.67,0,0,0,1.4-.09,1.13,1.13,0,0,1,.47,0,5,5,0,0,1,2,.38.32.32,0,0,0,.14,0,3.54,3.54,0,0,1,1.8.68,6.34,6.34,0,0,0,.86.47A2.73,2.73,0,0,1,130,65.75a6,6,0,0,1,0,1.1c0,.5,0,1,0,1.51,0,.18,0,.36,0,.54a2,2,0,0,0,.25,1.17,1.74,1.74,0,0,0,1.91,1c.63-.09,1.26-.14,1.89-.18a1.85,1.85,0,0,1,1.24.34,2.58,2.58,0,0,0,.81.34,1.48,1.48,0,0,1,1.17,1.35c.09.72.18,1.44.23,2.18.09,1.71.16,3.4.23,5.11,0,.5,0,1,.09,1.51a2.45,2.45,0,0,0,.18.7,14.2,14.2,0,0,0,1.53,2.52,3.57,3.57,0,0,0,3.65,1.15.62.62,0,0,0,.36-.27,4.5,4.5,0,0,0,.23-.47c.32-.63.63-1.28,1-1.91A2.29,2.29,0,0,1,146,82.32a4.94,4.94,0,0,0,.88-.65c-.16-1.22-.81-1.53-1.76-1.69a8.09,8.09,0,0,1-2.16-.7,2,2,0,0,1-1.17-1.82,10.64,10.64,0,0,1,.09-1.46c.11-1.28.25-2.59.38-3.87a2.37,2.37,0,0,1,.86-1.64A8.77,8.77,0,0,1,145.14,69a2.45,2.45,0,0,1,1.78-.2,18.19,18.19,0,0,0,1.94.23c.65.09,1.28.18,1.91.29a1.11,1.11,0,0,1,1,1c.09.59.16,1.15.2,1.73.09,2.09.16,4.19.23,6.28s.14,4.26.2,6.37a6.41,6.41,0,0,1-.95,3.45,8.48,8.48,0,0,1-2.88,2.7,11.89,11.89,0,0,1-1.4.74c-2.36,1.15-4.77,2.16-7,3.49-.83.47-.74.25-.77,1.26s.07,1.91.16,2.86a4.28,4.28,0,0,0,.27.81l1.71.11a7.75,7.75,0,0,1,1,.11,1.5,1.5,0,0,1,1.24,1,5.22,5.22,0,0,1,.32,3.15,4.75,4.75,0,0,1-.36.77,7.28,7.28,0,0,1,.2.88c.09.68-.14.92-.79.9a4.1,4.1,0,0,1-.25.9c-.18.34-.56.27-.81.23l-.56.72c.45.59.45.7.07,1.31.45.61.45,1-.11,1.51a.75.75,0,0,0-.29.81.64.64,0,0,1,0,.29c0,.5,0,.5-.52.65l-.07.65-.2.59c0,.11-.14.27-.09.36a1.6,1.6,0,0,1-.23,1.55c-.11.2-.23.41-.34.63a.14.14,0,0,0,0,.09,1.1,1.1,0,0,1-.43,1,.68.68,0,0,0-.07.59,1.69,1.69,0,0,1-.52,1.8c-.23.25-.45.52-.72.81-.18-.25-.36-.45-.5-.68a.84.84,0,0,0-.81-.43c-3,0-5.88,0-8.83-.09-2,0-3.9-.07-5.86-.11-.43,0-.83-.07-1.26-.07s-.65.14-.86.65a6,6,0,0,1-2.5,3,1.63,1.63,0,0,1-1.37.14,1.28,1.28,0,0,1-.95-1.62,2.83,2.83,0,0,1,.83-1.62.93.93,0,0,0,.16-.25,1.21,1.21,0,0,1,.23-.36,16.3,16.3,0,0,0,1.6-2.12,16.05,16.05,0,0,0,1.53-2.14c.38-.59.65-1.22,1-1.85a1.54,1.54,0,0,0-1.22-.61,5.13,5.13,0,0,0-2.46.52,5.43,5.43,0,0,1-1.08.27,1.92,1.92,0,0,0-.7.2,2.19,2.19,0,0,1-1.82.25,10.09,10.09,0,0,1-1.4-.45,11.74,11.74,0,0,0-3-.86,1.59,1.59,0,0,1-1.15-1.08,1,1,0,0,1,.11-.56,2.15,2.15,0,0,1,1.49-1.1,3,3,0,0,0,.43-.11,9.84,9.84,0,0,1,2.5-.81,2,2,0,0,0,.34-.11,1.05,1.05,0,0,0-.45-.77,2.36,2.36,0,0,1-.9-2.46,1.22,1.22,0,0,1,.86-1,.62.62,0,0,0,.34-.18,1.59,1.59,0,0,1,1-.38.67.67,0,0,0,.29,0,2.78,2.78,0,0,1,1.42-.29,5.7,5.7,0,0,0,2-.5,1,1,0,0,0,.52-.47,2.06,2.06,0,0,1,.52-.56c.27-.25.29-.25.14-.61-.09-.2-.18-.38-.27-.56a24.8,24.8,0,0,0-2.64-4c-.95-1.15-1.82-2.34-2.73-3.49a2.06,2.06,0,0,0-.56-.52c-.59-.36-1.17-.7-1.76-1a10.75,10.75,0,0,1-1-.56c-.18-.11-.45-.27-.5-.45-.11-.54-.61-.79-.88-1.19a.69.69,0,0,0-.34-.23c-.77-.2-1-.54-1-1.33a1.41,1.41,0,0,0-.14-.95,1.05,1.05,0,0,1-.07-.38c0-.32-.09-.63-.16-1a2.47,2.47,0,0,1-.59-.14c-.27-.11-.52-.25-.79-.36-.11,0-.18-.18-.29-.18a2.09,2.09,0,0,1-1.26-.56,4.92,4.92,0,0,0-.68-.36,2.24,2.24,0,0,1-1.26.68s0,0,0,0a19.37,19.37,0,0,1-2.14,1.13c-.43.27-.88.56-1.33.79a1.19,1.19,0,0,1-1.37-.07.54.54,0,0,0-.25-.14,1.11,1.11,0,0,1-.79-1,1.57,1.57,0,0,0-.72-1.08A1.6,1.6,0,0,1,94,84.1a.83.83,0,0,1-.88-.68.59.59,0,0,0-.41-.36,1.87,1.87,0,0,1-.9-.54.53.53,0,0,0-.36-.16,16.21,16.21,0,0,0-3.29.41,9.32,9.32,0,0,0-1,.45,3.69,3.69,0,0,0-1.28.74,3.08,3.08,0,0,1-1.42.68,2.51,2.51,0,0,0-1.53,1.26,10.71,10.71,0,0,1-1.06,1.58,3.56,3.56,0,0,0-.45.81,2.43,2.43,0,0,1-1.08,1.19,1.23,1.23,0,0,0-.45.45,77.46,77.46,0,0,0-4.44,6.64,6.9,6.9,0,0,0-.45.81,1.07,1.07,0,0,1-.83.68L72,98.54a5,5,0,0,1-.52.09.65.65,0,0,0-.63.56c-.45,1.71-.95,3.4-1.35,5.14a11.68,11.68,0,0,0,0,4.59,4.85,4.85,0,0,0,.77,1.82.82.82,0,0,0,.61.36c.81.11,1.6.2,2.41.27s1.89.11,2.82.16a2.68,2.68,0,0,0,1.26-.23,3.84,3.84,0,0,1,1.22-.29,8.53,8.53,0,0,1,3.38.34,14.86,14.86,0,0,0,4.32.61c2.23.07,4.46.11,6.67.2a7.46,7.46,0,0,1,1.4.2,1.57,1.57,0,0,1,.52.25.8.8,0,0,1,.23,1.13.78.78,0,0,1-.27.27,1.69,1.69,0,0,1-.74.23c-1.28.07-2.57.14-3.85.11s-2.7,0-4-.11c-.56,0-1.13-.16-1.69-.23-.79-.07-1.58-.14-2.39-.16-2.09,0-4.19,0-6.28,0a1.3,1.3,0,0,0-1.17.5c-.68.81-1.4,1.58-2.09,2.36a4.49,4.49,0,0,0-.54.74,2.56,2.56,0,0,0-.11,2.68c.2.38.43.77.61,1.17a1,1,0,0,1-.86,1.6,3.49,3.49,0,0,1-.5,0c-1.08,0-2.14-.11-3.22-.09l-8.76.09h-.54c0-.34,0-.68,0-1s.09-.34-.09-.5,0-.18,0-.25a4.84,4.84,0,0,1,.32-.59c.5,0,.95.09,1.42.11a3.7,3.7,0,0,0,1.49-.18.86.86,0,0,1,1,.29,1.67,1.67,0,0,1,1.13-.29c.61,0,1.24,0,1.85.09a2.43,2.43,0,0,0,.9,0,1.11,1.11,0,0,1,.65.14,1.05,1.05,0,0,0,1.06-.09,1.54,1.54,0,0,1,1.28-.36.7.7,0,0,0-.11-.23,1.21,1.21,0,0,1-.23-1.31,3.1,3.1,0,0,0,.09-1,.9.9,0,0,1,.41-.9,1.5,1.5,0,0,0,.43-.56,8.4,8.4,0,0,0,.36-.79s0-.07,0-.09c.43-.25.54-.74.83-1.08.14-.18.27-.36.41-.56a3.39,3.39,0,0,1-.38-.23.59.59,0,0,0-.63-.11,1,1,0,0,1-1.15-.27.67.67,0,0,0-.34-.16,1.49,1.49,0,0,1-.86-.63,12.75,12.75,0,0,1-1.33-2.66,2.53,2.53,0,0,1-.09-.72c0-.07,0-.14,0-.18-.07-.54-.14-1.06-.2-1.64a2.93,2.93,0,0,0-.27-.14.76.76,0,0,1-.45-.79c0-.32.23-.47.65-.54a.48.48,0,0,0,.38-.27c-.27-.5-.52-.92-.74-1.37a1.13,1.13,0,0,1,.14-1.24.68.68,0,0,0,.16-.54.8.8,0,0,1,.36-.86c.09-.07.11-.2.16-.32s.14-.41.27-.47A1,1,0,0,0,68,100a6,6,0,0,1,.92-1.71A.85.85,0,0,0,69,98a1.27,1.27,0,0,1,.9-.88,1,1,0,0,0,.47-.29,2.18,2.18,0,0,1,1.53-.63,1.91,1.91,0,0,0,1.53-1.08c.2-.29.41-.59.63-.88A5.69,5.69,0,0,0,74.94,93a3.26,3.26,0,0,1,.68-.88,2.56,2.56,0,0,0,.74-1.28,1,1,0,0,1,.77-.81c0-.09-.09-.18-.14-.29a.52.52,0,0,1,.25-.68.8.8,0,0,1,.23,0c.45,0,.59-.09.65-.47a1.36,1.36,0,0,1,.77-.95,1.81,1.81,0,0,0,.88-1,7.57,7.57,0,0,1,.72-1.15,2.22,2.22,0,0,0,.5-1,1.23,1.23,0,0,1,1.31-1,4.84,4.84,0,0,1,.52,0c.29-.41.79-.59,1.1-1a1.63,1.63,0,0,1,1.1-.59.73.73,0,0,0,.52-.23.54.54,0,0,1,.25-.14.67.67,0,0,0,.47-.34.54.54,0,0,1,.81-.18c.16.07.27.16.45.09a4.06,4.06,0,0,1,1.85-.38c0-.07.07-.14.11-.2.23-.29.45-.36.74-.14a.91.91,0,0,0,.5.14,4.3,4.3,0,0,1,.74.14c.18,0,.34.09.52.11a1.94,1.94,0,0,1,1,.34,3.15,3.15,0,0,0,1.08.41,1.05,1.05,0,0,1,.92.92.78.78,0,0,0,.54.63c.54.23.56.27.52.9a2.4,2.4,0,0,0,.43.16.65.65,0,0,1,.56.63,2.65,2.65,0,0,0,.16.45l.09,0,.07-.47a.67.67,0,0,1,1.1-.47.61.61,0,0,0,.38.14,13,13,0,0,0,1.28-.27,2,2,0,0,0,.36-.23c.11-.07.23-.2.34-.18.36,0,.59-.25.86-.43a2.59,2.59,0,0,1,.56-.27.5.5,0,0,1,.61.18c.14.18.32.18.5.25.95.32,1.89.65,2.86,1,.23.07.43.16.63.23.54.14.7.38.61.95v.16l.41.27a1.19,1.19,0,0,1,.5.9c0,.56.14.68.68.81a1,1,0,0,1,.36.14.67.67,0,0,1,.32.9.7.7,0,0,1-.16.2l-.16.14c.63.25.63,1,1.19,1.31a1.3,1.3,0,0,1,.32-.11.76.76,0,0,1,.95.36,1,1,0,0,0,.25.27,1,1,0,0,1,.63.74,1,1,0,0,0,.45.61c.27.2.47.43.72.65l.59.5c.18.16.45.36.72.59h0a.79.79,0,0,1,1.08.38c.18.29.29.63.65.81a.43.43,0,0,1,.18.34,1.56,1.56,0,0,0,.47.83,1.72,1.72,0,0,1,.59,1.1.81.81,0,0,0,.09.25c1.13.32,1.26.68.59,1.46l.59,1.08c.27,0,.65-.07.81.29s0,.59-.29.88l.74.88c-.45.45-1,.81-1.13,1.55.38.54.29.95-.36,1.26a1.88,1.88,0,0,0-.81.59.72.72,0,0,1-.74.27.67.67,0,0,0-.54.11,7,7,0,0,1-.88.34c-.43.56-.43.56-1.13.61.07.18.11.34.18.52a5.54,5.54,0,0,1,.16.54l-1.31-.65a.53.53,0,0,0,0,.74l.07.07a1,1,0,0,1,.16,1.22c-.16.32-.34.63-.52.95a2.23,2.23,0,0,0-.34.74c0,.34-.29.5-.68.52s-.5,0-.86,0a1.06,1.06,0,0,0,.74.32,5.93,5.93,0,0,0,.63,0,.86.86,0,0,1,.88.25,2.64,2.64,0,0,0,1.37-.56.88.88,0,0,1,1.28,0,.39.39,0,0,0,.32.07,1.81,1.81,0,0,0,.59-.2,4.67,4.67,0,0,1,1.44-.36.64.64,0,0,1,.72.52c.38.23.68.41,1,.61a5.57,5.57,0,0,1,.59.43,1,1,0,0,1,.29.32,7.46,7.46,0,0,1,.34.74.52.52,0,0,1-.11.63.8.8,0,0,0-.2.77,1.68,1.68,0,0,1-.38,1.58,3.05,3.05,0,0,0-.47.79,1.51,1.51,0,0,0,0,.45h.83c.36-.5.9-.61,1.24.36a.55.55,0,0,0,.61-.14,1.09,1.09,0,0,1,1.1-.14,2.18,2.18,0,0,0,.86.09,2.58,2.58,0,0,1,1.37.16l.14,0c.36-.18.81-.07,1.13-.36a.59.59,0,0,1,.61-.09,3.74,3.74,0,0,0,.5.07c.16,0,.41.11.65.18a1.57,1.57,0,0,1,1.71.11,1.53,1.53,0,0,1,1.33.07,1.36,1.36,0,0,0,.95,0,1.21,1.21,0,0,1,1,0,2.68,2.68,0,0,1,.7-.52c.14-.07.36,0,.61.09.16-.14.34-.43.68-.32a6.59,6.59,0,0,1,.81.38l.2-.27c-.5-.79-.14-1.17.65-1.31a4.9,4.9,0,0,0,0-.56,1.89,1.89,0,0,1,.11-1.06c.07-.14.11-.27.18-.41.23-.59.25-.61.72-.86-.07-.47-.16-.92-.23-1.37a.91.91,0,0,0-.11-.2c-.41-.63-.18-1.15.56-1.24a.08.08,0,0,0,.07,0l.45-.68c-.34-.74-.32-.95.18-1.37-.27-.68-.2-.9.45-1.33l-.16-.5c-.52-.16-.72-.36-.7-.72s.27-.61.74-.72c.25,0,.5-.09.74-.11l.47-1.19a.76.76,0,0,1-.47-.72c0-.07-.14-.11-.18-.16l-.74,1.06a2.74,2.74,0,0,1,0,.74.61.61,0,0,1-.38.32.88.88,0,0,1-1.08-.59c-.16-.45,0-.7.5-.9l.5-1h-.27a.7.7,0,0,1-.7-.5.7.7,0,0,0-.72-.52c-.61,0-.79-.23-.83-.83a5.94,5.94,0,0,0,0-.63.8.8,0,0,0-.32-.56,1.16,1.16,0,0,1-.34-1l-.16-.11c-.36-.27-.45-.56-.16-.9a1.11,1.11,0,0,0,.27-1,4.48,4.48,0,0,1,.07-1.1.64.64,0,0,1,.2-.43c.43-.25.61-.74,1-1-.07-.52.25-.77.7-.9a.47.47,0,0,0,.36-.29.6.6,0,0,1,.65-.41c.29,0,.59,0,.77-.29a.22.22,0,0,1,.11-.09,9.2,9.2,0,0,0,1.62-.83,2.83,2.83,0,0,1,1.42-.29,1.2,1.2,0,0,0,1-.41.86.86,0,0,1,.54-.29,1.61,1.61,0,0,0,1.1-.79c.29-.47.45-.54.95-.41a1.09,1.09,0,0,0,1.08-.36c.18-.25.41-.47.63-.74a1.82,1.82,0,0,1-.18-.56c0-.2.23-.36.36-.61a.7.7,0,0,1,.32-.95c.16-.11.2-.41.29-.61-.47-.72-.43-.95.23-1.22-.25-.59-.23-.63.2-1.06a3,3,0,0,1-.14-1.67,1.15,1.15,0,0,0-.09-.61,1.83,1.83,0,0,1-.07-.86c-.09-.11-.2-.2-.29-.32a.61.61,0,0,1-.07-.77A2.93,2.93,0,0,0,150,77c0-.29-.07-.56-.11-.88-.7-.38-.79-1.13.07-1.55a.61.61,0,0,0-.16-.18.73.73,0,0,1-.11-1.06,1,1,0,0,0,.07-1,.84.84,0,0,1-.83-.61.38.38,0,0,0-.18-.14,6.61,6.61,0,0,0-.63-.27,5.47,5.47,0,0,1-.83.36c-.32.07-.5-.18-.63-.47-.52.23-1,.41-1.49.65a1,1,0,0,0-.52,1,3,3,0,0,1-.34,1.64,1.09,1.09,0,0,0-.07,1,1.08,1.08,0,0,1-.07.65.85.85,0,0,1-.2.34l.41.95q.3.17.68.34a.48.48,0,0,0,.23.09c.54-.09.88.25,1.22.63a1.13,1.13,0,0,1,1.1,0c.38.25.41.63.54,1a1.91,1.91,0,0,1,.38.09.59.59,0,0,1,.5.63.47.47,0,0,0,.11.29c.45.54.41.88-.2,1.24l-.14.11v.56a1.13,1.13,0,0,1-.36.92.36.36,0,0,0-.11.25.68.68,0,0,1-.52.7,1.63,1.63,0,0,0-1.28,1.46,1.09,1.09,0,0,1-.79.88.8.8,0,0,1-.43.86.24.24,0,0,0-.11.2c-.18.54-.36.63-.9.43l-.23-.07a1.18,1.18,0,0,1-.23.25.84.84,0,0,1-.9.23l-.41-.14a.67.67,0,0,0-.59,0,1,1,0,0,1-1.42-.23,3.94,3.94,0,0,0-.65-.41l-1.08-.63a.91.91,0,0,0-.2-.11,1.36,1.36,0,0,1-.95-.77c-.27-.45-.54-.92-.83-1.37a4.12,4.12,0,0,1-.56-1.24c-.09-.41-.32-.79-.41-1.19a9.37,9.37,0,0,1-.29-2.5,14.69,14.69,0,0,0-.07-1.71,6,6,0,0,1,.11-1.89,1.66,1.66,0,0,0-.38-1.46,1.64,1.64,0,0,0-.95-.72c-.14,0-.27-.25-.36-.41a3.5,3.5,0,0,1-.18-.52c-.23.11-.43.23-.63.32a3.4,3.4,0,0,1-.65.29.58.58,0,0,1-.72-.41s0-.07,0-.11a.66.66,0,0,0,0-.2l-.38-.07a3.73,3.73,0,0,1-1.62-.61.88.88,0,0,1-.45-.72.55.55,0,0,0-.2-.43.88.88,0,0,1-.18-.23l-.68-1.22c-.41-.07-.88,0-1-.56s.27-.65.63-.83c-.43-.47-.68-.95-.18-1.49-.2-.38-.41-.74-.61-1.1a.54.54,0,0,0-.14-.18c-.41-.27-.79-.54-1.24-.83l-.2.09a.86.86,0,0,1-1.06-.23.63.63,0,0,0-.5-.25,1.14,1.14,0,0,1-.38-.07.7.7,0,0,0-.56,0,1.12,1.12,0,0,1-1,0,1.41,1.41,0,0,0-.61-.07,3.22,3.22,0,0,1-1.53-.16.56.56,0,0,0-.38,0c-.52.11-1,.23-1.53.32a3.8,3.8,0,0,0-1.46.52,3.5,3.5,0,0,1-1.42.45,6.41,6.41,0,0,1-.92.09.84.84,0,0,0-.74.34.69.69,0,0,1-.86.18l-.38-.2a2.2,2.2,0,0,1-.52.14,1.66,1.66,0,0,1-.47,0c-.47-.14-.92-.29-1.37-.45a4.26,4.26,0,0,0-.52-.11,3.71,3.71,0,0,1-1.6-.65,2,2,0,0,1-.29-.32c-.16-.2-.29-.38-.43-.59a.4.4,0,0,0-.43-.16c-.5,0-.72-.09-.77-.59A2.09,2.09,0,0,0,105,62s-.07-.07-.09-.11c-.38-.18-.79-.34-1.17-.52s-.52-.25-.79-.38a4.77,4.77,0,0,0-.47-.25.35.35,0,0,0-.38.11.94.94,0,0,1-1.33.18,1.89,1.89,0,0,0-.77.81,1.26,1.26,0,0,1-.52.56,1,1,0,0,0-.29.25,8.44,8.44,0,0,1-1.82,1.76.67.67,0,0,0-.27.38,1.38,1.38,0,0,1-.68.79,1.55,1.55,0,0,0-.29.25.08.08,0,0,0,0,0c-.32.32-.77.41-1.08.79a2,2,0,0,1-1.19.5,1.94,1.94,0,0,1-1.24-.07.62.62,0,0,0-.45,0,1.41,1.41,0,0,1-1.69-.5,1.18,1.18,0,0,0-.25-.23L89,65.7c-.45.18-.79-.07-1-.52a.83.83,0,0,0-.77-.52c-.79,0-1.55,0-2.34,0a6.8,6.8,0,0,1-1.35,0,5.93,5.93,0,0,0-1.67-.09.92.92,0,0,1-.25,0,.79.79,0,0,0-.95.47.74.74,0,0,1-.74.43h-.43c-.72,0-.88-.14-1.06-.86-.34.25-.79.25-1.06.63a.89.89,0,0,1-.52.18,3.05,3.05,0,0,1-.45,0,1.14,1.14,0,0,1-1,.5.9.9,0,0,0-.41.23c-.18.11-.32.32-.5.38a12.61,12.61,0,0,1-1.58.45,1.82,1.82,0,0,0-.95.43,5,5,0,0,1-.74.63,19.42,19.42,0,0,1-1.8.92,1.55,1.55,0,0,1-.72,0A1.3,1.3,0,0,0,68,69c-.36.16-.68.38-1,.56a3.41,3.41,0,0,1-1.94.32,2.1,2.1,0,0,1-.32,0,.8.8,0,0,0-.09.2.55.55,0,0,1-.92.23,3.11,3.11,0,0,0-1.37-.52,2.67,2.67,0,0,1-1-.41c-.32-.23-.61-.5-.9-.74a9.53,9.53,0,0,0-2-1.49,5.58,5.58,0,0,1-.59-.43,2.27,2.27,0,0,0-.34-.16.56.56,0,0,1-.32-1c.14-.16.29-.29.45-.45a3.08,3.08,0,0,0,.34-.47,2.44,2.44,0,0,1-.38-2.07A.77.77,0,0,1,58.2,62c.45-.11.45-.11.47-.54a.8.8,0,0,1,0-.23,1.91,1.91,0,0,0,.25-1c0-.29.27-.52.63-.59.18,0,.38,0,.61-.09,0-.23,0-.41.09-.61.11-.52.18-1,.81-1.22h0c.2-.5.65-.59,1.17-.61a1.18,1.18,0,0,1,1.31-1c0-.29.09-.56.16-.83a1.05,1.05,0,0,1,.59-.72,1.57,1.57,0,0,0,.79-1.06c.14-.52.27-.61.83-.5a.88.88,0,0,0,.41-.09,1.86,1.86,0,0,1,1.51-.18c.14-.18.25-.36.38-.52a.72.72,0,0,1,.95-.25.38.38,0,0,0,.41,0,4.23,4.23,0,0,0,.54-.41c.36-.34.61-.38,1-.09a.64.64,0,0,0,.5.14,7,7,0,0,1,1.94-.14c.09,0,.2-.07.32-.09a13.9,13.9,0,0,0,1.37-.43,1.27,1.27,0,0,1,.59-.07,1,1,0,0,0,.83-.23c.16-.14.45-.11.72-.18.38-.59.72-.68,1.4-.41a1,1,0,0,0,.36,0,7.29,7.29,0,0,1,2.21-.23l1.58.23a2.78,2.78,0,0,1,1-.88c.54-.29.74-.27,1.22.18a1.12,1.12,0,0,1,1,0,.52.52,0,0,0,.32,0c.23,0,.45-.07.68-.07a6.36,6.36,0,0,1,.65,0c0-.09.07-.2.11-.29a.68.68,0,0,1,.88-.41.81.81,0,0,1,.27.18,2.85,2.85,0,0,1,.25.29.53.53,0,0,0,.83.11.75.75,0,0,1,1.06,0,.49.49,0,0,0,.38.11,1.82,1.82,0,0,1,.5,0c.47-.41.68-.41,1.17,0a2.43,2.43,0,0,0,.68.36,2.1,2.1,0,0,1,.92.59,1.34,1.34,0,0,0,.47.32c.74.38,1.51.74,2.25,1.15a1.77,1.77,0,0,1,.54.54,1.31,1.31,0,0,0,.88.54.8.8,0,0,1,.74.54,2.48,2.48,0,0,0,1.08,1.17,10.52,10.52,0,0,0,1.19-.41,1.91,1.91,0,0,0,.43-.32l1-.88a.73.73,0,0,0,.23-.29,1.12,1.12,0,0,1,.61-.68c.25-.14.54-.23.79-.38a4.57,4.57,0,0,0,1-.65.8.8,0,0,1,1.08-.2.42.42,0,0,0,.16,0,2.77,2.77,0,0,1,1.4-.52,1,1,0,0,0,.63-.32,1,1,0,0,1,1.06-.32l.56.14a1.07,1.07,0,0,0,.83-.07,5.08,5.08,0,0,0,.95-.43.48.48,0,0,1,.63.09,2.39,2.39,0,0,1,.2.25l1-.23a.52.52,0,0,1,.63-.25c.43.16.38.56.43.92.43.09.77.36,1.24.34.16,0,.34.2.52.23.54.09,1.08.16,1.62.23l.86.11,1.55.36a.32.32,0,0,0,.29-.07c.54-.38.72-.38,1.22.07a1.24,1.24,0,0,1,.2.16,2.26,2.26,0,0,1,.29-.34.48.48,0,0,1,.74,0c.2.25.54.27.81.38.14-.11.25-.23.36-.34a.58.58,0,0,1,.68-.09.6.6,0,0,1,.27.59c0,.14,0,.27,0,.41a.22.22,0,0,0,.09,0,1,1,0,0,1,1.44-.18,1.22,1.22,0,0,0,1.08.11,2,2,0,0,1,.81,0,10.15,10.15,0,0,1,1.19.2,9.23,9.23,0,0,1,.9.25.47.47,0,0,1,.23-.14c.18,0,.43-.09.5,0,.41.43,1,.34,1.44.65a1.11,1.11,0,0,0,.36.11,6.7,6.7,0,0,1,2.14.92,1.08,1.08,0,0,0,.41.14,2.53,2.53,0,0,1,1.71,1.19,1.12,1.12,0,0,1,.18.45,2.42,2.42,0,0,0,.41,1.06c.38.72.74,1.44,1.08,2.18a1.77,1.77,0,0,1,.2,1.17c0,.09.07.23.16.34a2.52,2.52,0,0,1,.63,1.89,1,1,0,0,0,.09.43c.09.27.16.56.27.83a4.23,4.23,0,0,0,.27.41c.29-.32.56-.54.79-.83a1.71,1.71,0,0,0,.34-.63c.18-.65.38-.79,1-.47a.68.68,0,0,0,.41-.7.54.54,0,0,1,.16-.38c.47-.36.5-.95.72-1.44a2.85,2.85,0,0,0,.14-.63c.07-.34.11-.68.47-.86a.33.33,0,0,0,.11-.14,4.12,4.12,0,0,0,.36-1.4,2.19,2.19,0,0,1,.23-.83.73.73,0,0,1,.65-.45,2.14,2.14,0,0,0,1.15-.45,2.8,2.8,0,0,0,.52-.38c.34-.36.83-.32,1.22-.54.41.16.81,0,1.22.11.2,0,.38.27.63.45a.86.86,0,0,1,.95.41.3.3,0,0,0,.2.11,1.29,1.29,0,0,1,.32.09,1.68,1.68,0,0,0,1.08.29c.32,0,.52.23.52.59a1.42,1.42,0,0,0,.2.74c.23.43.32.95.59,1.4a1.57,1.57,0,0,1,0,.36l.23,0a.65.65,0,0,1,.61.59,1.2,1.2,0,0,1,0,.63,1.56,1.56,0,0,0,0,1.31,2.7,2.7,0,0,0,.43,1.06c.11.14.09.43.11.65a3.23,3.23,0,0,1-.09.5c.32.18.59.38.45.79.34.43.18,1.13.81,1.46a3.71,3.71,0,0,0,.09-.7,9.48,9.48,0,0,0-.5-3.06,6.46,6.46,0,0,1-.25-1.28c0-.25-.07-.52-.09-.77a.68.68,0,0,0-.38-.61c-.47-.25-.47-.7-.11-1.17,0-.27-.07-.52-.11-.77a1.77,1.77,0,0,0-.11-.32c0-.09-.16-.2-.16-.29,0-.36-.18-.56-.41-.79a2.42,2.42,0,0,1-.61-1.19c0-.23-.09-.43-.14-.63a4.15,4.15,0,0,1-.74.07.34.34,0,0,1-.27-.25c-.25-.72-.38-.9.18-1.35l-.14-2a1,1,0,0,1-.38-1,3,3,0,0,0-.14-.9,2.18,2.18,0,0,1,0-1.26l-1.28-1.33,1.42-.32a.89.89,0,0,1-.27-1c0-.09-.07-.2-.09-.32A2.14,2.14,0,0,1,153.7,43a.85.85,0,0,0,0-.47c-.16-.47-.34-.95-.52-1.44l-.23-.07a.71.71,0,0,1-.45-1,.46.46,0,0,0,0-.45,2.31,2.31,0,0,1-.09-2.07v-.09c-.72-.88-.72-.9-.18-1.67l-.32-1.13a1.05,1.05,0,0,1-.23-.11.59.59,0,0,1-.36-.59,1,1,0,0,0-.68-1,2.14,2.14,0,0,1-.61-.38c-.32-.27-.56-.63-1-.74a.22.22,0,0,1-.11-.09,2.88,2.88,0,0,0-.88-1,.55.55,0,0,1-.18-.47c0-.72.07-1.46.11-2.18a1.09,1.09,0,0,1,.68-.86c-.23-.36-.34-.72,0-1a6.67,6.67,0,0,1,.92-.63,1.22,1.22,0,0,1,.68-1.31,1.1,1.1,0,0,0,.36-.54,3.66,3.66,0,0,0,.09-1.22l-.52.18a1.27,1.27,0,0,1-.83.95,1.6,1.6,0,0,0-.9.77c-.07.14-.09.27-.16.38a5.48,5.48,0,0,1-.5,1,1.65,1.65,0,0,1-.68.5,4.08,4.08,0,0,1-1.82.61.64.64,0,0,1-.29,0c-.52-.16-1-.34-1.53-.52a.2.2,0,0,1-.14-.14c-.27-.32-.52-.65-.79-1-.36.09-.68.34-1,.11s-.32-.61-.29-.95c-.65-.59-.63-1,.14-1.78-.45-.52-.47-.61-.11-1.15l-.2,0a.81.81,0,0,1-1.08-.54c-.07-.18-.09-.34-.32-.38a.26.26,0,0,1-.16-.11,1.45,1.45,0,0,0-1-.72.44.44,0,0,1-.2-.2c-.09-.32-.38-.43-.56-.63a.47.47,0,0,0-.25-.16.91.91,0,0,1-.88-.86c-.27.16-.5.29-.72.41-.5.25-.83,0-.88-.5a3.62,3.62,0,0,1,0-.5l-.77-.59c-.11-.07-.29-.07-.41-.14a8.42,8.42,0,0,0-1.49-.56.79.79,0,0,1-.29-.18.76.76,0,0,0-.61-.23.88.88,0,0,1-.92-.7c0-.11-.18-.2-.29-.29s-.47-.34-.7-.5c0,0-.09-.11-.16-.11-.5-.09-.72-.54-1.08-.77a1.13,1.13,0,0,1-.23-.32c-.11-.18-.25-.27-.45-.18s-.52.23-.72,0a3.36,3.36,0,0,1-.41-.68.71.71,0,0,1-.47-.83,5,5,0,0,0-.61-.43,2,2,0,0,0-.38-.18c-.18-.09-.45-.14-.54-.27a.72.72,0,0,0-.63-.36.78.78,0,0,1-.74-.52A.87.87,0,0,0,122.3,9c-.65,0-.77-.14-.92-.79-.36-.14-.88,0-1.06-.45A1.18,1.18,0,0,1,119,7.37a.81.81,0,0,0-.34-.18c-.11,0-.23,0-.34-.07a1,1,0,0,0-.92,0,1.34,1.34,0,0,1-.7-.11c-.14,0-.25-.16-.38-.2a.82.82,0,0,0-.79.09c-.36.25-.47.23-.81,0,0,0-.09-.11-.14-.11a1.09,1.09,0,0,1-1-.59l-.34.2a1,1,0,0,0,0,.11c.32.47.65.95,1,1.44a.66.66,0,0,0,.34.32A1.7,1.7,0,0,1,116,9.93v.18a3,3,0,0,1,1.17,1.31.55.55,0,0,0,.25.2,2.57,2.57,0,0,1,.43.23.62.62,0,0,0,.43.18c.38,0,.47.18.56.56a.51.51,0,0,0,.14.27A6.74,6.74,0,0,0,120.57,14a.78.78,0,0,1,.52.65,1.33,1.33,0,0,0,.34.63A6.47,6.47,0,0,1,122,16a1,1,0,0,1,0,1.19.66.66,0,0,0-.09.36c0,.29,0,.52-.34.61,0,.16.09.27.14.41a.66.66,0,0,1-.32.86,1.08,1.08,0,0,0-.36.27.87.87,0,0,1-1,.41l-1.76-.34c-.43.54-.83.65-1.46-.14a1.14,1.14,0,0,1-1-.14.49.49,0,0,0-.36,0,1.11,1.11,0,0,1-1.13-.29.26.26,0,0,0-.18-.07,2,2,0,0,1-1.44-.81s0,0-.07,0c-.36.07-.54.38-.72.65.32.74-.16,1.26-1.1,1.44a8.07,8.07,0,0,1-.25.79.91.91,0,0,1-.83.56.43.43,0,0,0-.41.2,1.4,1.4,0,0,0-.32,1.28,1.33,1.33,0,0,1-.23,1.28,1,1,0,0,0-.14.63c0,.43-.11.65-.52.74a.86.86,0,0,1-.34,0c-.38-.09-.61.18-.83.38a.34.34,0,0,0-.09.25c0,.18-.09.34-.27.36a.61.61,0,0,1-.38-.14c-.16-.09-.29-.25-.45-.36-.32-.25-.68-.47-.77-.86a6.88,6.88,0,0,1-.72.29.58.58,0,0,1-.41-.16c-.36-.27-.36-.68,0-1.24A2,2,0,0,1,102.77,22l-.45-.74c-.45.52-.79.61-1.15.32s-.32-.79.11-1.28c-.2-.23-.43-.54-.25-.86a3.59,3.59,0,0,1,.65-.65,2,2,0,0,1-.43-.34,2.64,2.64,0,0,1-.2-.54,1,1,0,0,1-.59-1.73c.09-.11.16-.25.25-.36l-.09-.07a2.1,2.1,0,0,1-.29.34,1.57,1.57,0,0,1-.38.29.51.51,0,0,1-.63,0,.5.5,0,0,1-.18-.61c.23-.5.5-1,.79-1.49a1.2,1.2,0,0,1-.18-.38,1.23,1.23,0,0,1,0-.5c-.29,0-.59,0-.88,0a.79.79,0,0,1-.72-.41,1.48,1.48,0,0,0-1-.77l-.25-.09a.9.9,0,0,1-1.26.14c-.2-.11-.41-.2-.63-.32-.36.32-.77.52-1.17,0a1.3,1.3,0,0,0-.32.11,2,2,0,0,1-1.31.18,12.13,12.13,0,0,1-1.53-.27.5.5,0,0,0-.36.07,1.13,1.13,0,0,1-.86,0A1.39,1.39,0,0,0,89,12l-3.15.27c-.36,0-.72.09-1.06.16a.86.86,0,0,0-.38.18c-.34.23-.68.5-1,.7a1.81,1.81,0,0,1-1.13.25.6.6,0,0,0-.54.16,1.34,1.34,0,0,1-1.22.36,2.42,2.42,0,0,0-.9.11,5,5,0,0,1-2.23.09,1,1,0,0,1-.74-.56l-.23-.5-.72.63c0-.88-.07-1.67,0-2.46a.9.9,0,0,1,.56-.72.51.51,0,0,0-.41-.54c-.68-.18-.79-.32-.77-1V9l-.83-.54a.8.8,0,0,1-.34-.68c0-.14,0-.25,0-.41-.36.16-.72.2-.95.52a.39.39,0,0,1-.25.14,2.37,2.37,0,0,0-1.06.47,4.5,4.5,0,0,1-.47.23c-.23.09-.45.2-.65.29a3.19,3.19,0,0,1-.41.18,3.5,3.5,0,0,0-1.55.9c-.5.47-.7.5-1.28.23l-1.22.41a.75.75,0,0,0-.29.25,1.15,1.15,0,0,1-.92.45c-.29,0-.61.07-.9.11a.23.23,0,0,0-.16.09,1.39,1.39,0,0,1-1.28.59,1,1,0,0,0-.83.41,2.33,2.33,0,0,1-.56.47,1,1,0,0,1-1.19,0c-.36.14-.7.23-1,.36a.69.69,0,0,0-.29.2.93.93,0,0,1-.83.52,3,3,0,0,0-1.46.45,2.21,2.21,0,0,1-.36.11,4.5,4.5,0,0,0-.47.23,7.4,7.4,0,0,0-.7.45,1,1,0,0,0-.27.25,1.35,1.35,0,0,1-.63.5,8.16,8.16,0,0,0-1,.54c-.07,0-.09.2-.14.29a.68.68,0,0,1-.77.54.82.82,0,0,0-.81.43c-.16.29-.32.36-.81.54,0,.07-.07.16-.09.25a.59.59,0,0,1-.88.41c-.18-.07-.32-.09-.45.09.18.38.54.81,0,1.17s-.79,0-1.06-.25l-1.1.32a.94.94,0,0,1-.68.59s-.11,0-.11.07c-.09.38-.43.47-.7.65s-.56.29-.86.43a4.34,4.34,0,0,0-1,.72c-.5.47-.47.5-1.08.54a4.51,4.51,0,0,1-.32.36.61.61,0,0,1-.63.18,1,1,0,0,0-.56,0,1.17,1.17,0,0,1-1-.23.79.79,0,0,0-.68-.16,2.27,2.27,0,0,1-.68,0,1.48,1.48,0,0,1-.54-.25c-.18-.11-.34-.29-.54-.41-.43-.25-.88-.45-1.28-.7l-.74-.54-.27-.18a1.28,1.28,0,0,1-.34-.27c-.27-.27-.52-.52-.7-.72l-1,.07a1.24,1.24,0,0,0,.2.16,1.32,1.32,0,0,1,.92,1,2.91,2.91,0,0,0,.61,1.24c.27.29.54.56.79.86a1.92,1.92,0,0,1,.38.56.81.81,0,0,1,0,.52c-.09.23-.25.43-.11.7a.24.24,0,0,1,0,.18,1.3,1.3,0,0,0-.27.86.83.83,0,0,1-.27.54.56.56,0,0,0-.2.54.79.79,0,0,1-.43.86,1.08,1.08,0,0,0-.61,1.08,2.59,2.59,0,0,1-.68,1.82.79.79,0,0,0-.16,1s0,.07,0,.09c.25.65.07.95-.65,1a1.73,1.73,0,0,0-.32.88,1.3,1.3,0,0,1-.68,1.13.41.41,0,0,0-.2.45,1.13,1.13,0,0,1-.36,1,.5.5,0,0,0-.14.29,2.59,2.59,0,0,1-.7,1.58,3.85,3.85,0,0,0-.25.32l.61.95c.16.27.09.68-.2.74-.47.11-.52.45-.65.86a1.15,1.15,0,0,1,1,1.46,1.58,1.58,0,0,1,.65.07,2.29,2.29,0,0,1,.52.41.81.81,0,0,0,.34.18c.92.23,1.08.38,1.15,1.35.38.18.7.41.68.9.38.41.2,1,.5,1.44a1.21,1.21,0,0,1,.07.7,2,2,0,0,0,.2,1.13A2.81,2.81,0,0,1,34.78,52a.7.7,0,0,1-.47.36.75.75,0,0,0-.63.52c-.07.2-.2.25-.41.27a4.64,4.64,0,0,0-1.44.34,2,2,0,0,1-1.58,0c-.18-.07-.29-.34-.47-.45s-.5-.09-.61-.23c-.34-.38-.86-.45-1.22-.79a.38.38,0,0,0-.32,0,.81.81,0,0,1-.83-.14,1,1,0,0,1-1.06.18.56.56,0,0,0-.18,0c-.47,0-.81-.18-.83-.74-.72-.09-1.44.07-2.07-.36a1.13,1.13,0,0,0-.16.18.68.68,0,0,1-.81.29A4.06,4.06,0,0,0,20,51.33a.72.72,0,0,0-.63.41,1,1,0,0,1-.65.54,7.87,7.87,0,0,1-1.42.27.77.77,0,0,0-.68.38,1.42,1.42,0,0,1-.83.7,1.84,1.84,0,0,0-.45.27c-.11.09-.2.2-.34.29a2.66,2.66,0,0,0-.95,1c-.23.45-.52.5-1.17.32a2.24,2.24,0,0,1-1,1.1c-.07,0-.11.16-.16.23a2.12,2.12,0,0,1-.27.41.76.76,0,0,0-.23.74c.09.45-.11.63-.56.7a2.44,2.44,0,0,0-.43.18c-.16,0-.29.11-.5.18,0,.23,0,.47,0,.72,0,.43,0,.81-.52,1a.43.43,0,0,0-.18.34.94.94,0,0,1-.29.79.41.41,0,0,0-.14.2,1.49,1.49,0,0,1-1,1.13c.18.61-.23,1.06-.41,1.55,0,.18-.32.29-.52.5a3.47,3.47,0,0,0,.29.27l.54.54c.11.11.2.23.34.34.34.25.36.47.18.88a16.19,16.19,0,0,1-1.91,2.57,2.82,2.82,0,0,1-.52.52.68.68,0,0,1-.81,0,2.82,2.82,0,0,1-1-1.13.69.69,0,0,1,0-.74,3,3,0,0,0,.52-1.49l.07-.38a2.61,2.61,0,0,0,.14-1.31A1.4,1.4,0,0,1,5,64.19a1.68,1.68,0,0,0,.36-.72A2.46,2.46,0,0,1,6.58,62,1.54,1.54,0,0,1,7,60.88a.81.81,0,0,0,.16-.41,1.13,1.13,0,0,1,.68-.88,1.27,1.27,0,0,0-.09-.27.84.84,0,0,1,.23-.9,6,6,0,0,0,.79-1A7.16,7.16,0,0,1,10,56.15a.78.78,0,0,0,.34-.54,1.13,1.13,0,0,1,.45-.77.78.78,0,0,0,.27-.27,2.62,2.62,0,0,1,1-1,1.33,1.33,0,0,0,.61-.61.76.76,0,0,1,.34-.32c.34-.2.7-.41,1.06-.59l1.28-.68s.11,0,.14,0c.38-.65,1.22-.61,1.67-1.13a.69.69,0,0,1,.36-.18,8.53,8.53,0,0,0,1.94-.79,5.5,5.5,0,0,1,.54-.23c.09,0,.2-.09.27-.07.52.18,1.06-.16,1.58,0a1.28,1.28,0,0,1,1.71-.47,6.1,6.1,0,0,1,1.87,1,1.57,1.57,0,0,0,.52.25l.95.29A1.11,1.11,0,0,1,27.91,50a1.46,1.46,0,0,0,.54,0,1.92,1.92,0,0,1,1,.2,5.47,5.47,0,0,1,1.8,1.4.88.88,0,0,0,.23.18c.2.14.41.25.63.38.32-.41.95-.14,1.35-.52a2.68,2.68,0,0,0-.34-.92,1.12,1.12,0,0,1-.16-.92.49.49,0,0,0,0-.36,4.42,4.42,0,0,1-.34-1.6,1.45,1.45,0,0,0-.09-.43c-.18-.5-.34-1-.54-1.53a.77.77,0,0,1-.95-.7l-1.22-.54a.84.84,0,0,1-.92.56.89.89,0,0,1-.77-.81A10.43,10.43,0,0,1,24.46,44c-.74.45-1.35.09-1.91-.45l-.27.16a6.75,6.75,0,0,1-2.36,1.22c-.23.07-.43.18-.63.25-.47.16-.95.32-1.42.45a.59.59,0,0,0-.36.2,2.72,2.72,0,0,1-.54.47l-.83.61a1.91,1.91,0,0,1-.43.32,10,10,0,0,0-2,1.4,20,20,0,0,0-1.87,1.49,2.66,2.66,0,0,1-1.24.72,1.46,1.46,0,0,0-.61.38,8,8,0,0,0-.61.63,1.34,1.34,0,0,1-1,.45.82.82,0,0,0-.38.16,3.29,3.29,0,0,1-.68.38,1.6,1.6,0,0,0-.92.65,1.22,1.22,0,0,0-.36.81.47.47,0,0,1-.11.27,1.14,1.14,0,0,0-.27,1.06c.09.36-.18.63-.56.72a.92.92,0,0,1-.43,0,.52.52,0,0,0-.65.34.9.9,0,0,1-.9.47.88.88,0,0,0-.41.09,1.2,1.2,0,0,1-1.51-.18L.9,56.76v-.5c.32-.11.38-.41.5-.68.47-1.08.81-1.46,1.78-1.4.2-.79,1-.88,1.55-1.24.11-.07.29,0,.43,0a1,1,0,0,0,.43-.16,6.79,6.79,0,0,0,.5-.63l1.06-1.33a1.4,1.4,0,0,0,.18-.27l-.9-.63c.29-.54.56-1,.86-1.53a2.25,2.25,0,0,1,.5-.54c.56-.47,1.13-.92,1.69-1.37l1.69-1.33a.53.53,0,0,0,.23-.27.8.8,0,0,1,.59-.65c.25-.09.52-.16.79-.25a1.12,1.12,0,0,0,.47-.2,1.69,1.69,0,0,1,1.24-.45h.88a1.21,1.21,0,0,1,.79-.77,2.07,2.07,0,0,1,1.64.11,7.51,7.51,0,0,1,1-.38,3.92,3.92,0,0,0,1.49-.45,1.64,1.64,0,0,1,1.31,0,4.57,4.57,0,0,1,.41-.29,1,1,0,0,1,.88-.16,1.55,1.55,0,0,0,1.26-.14c.32-.14.61-.29.95-.41a1.42,1.42,0,0,1,1.44.34.77.77,0,0,1,.27.92.51.51,0,0,0,.25.7l.11,0,.5.16c0-.29.18-.34.36-.43.36-.18.36-.47,0-.74a.55.55,0,0,1-.2-.72c.07-.2.16-.38.25-.59a1.06,1.06,0,0,1,0-1.49,3.56,3.56,0,0,0,.45-.81c.16-.36.25-.74.38-1.1a4.48,4.48,0,0,1,.81-1.6A1.19,1.19,0,0,0,30,35a4.11,4.11,0,0,1,.79-1.44c.14-.18.27-.36.43-.54a.84.84,0,0,0,.2-.72,1,1,0,0,1,.27-.9A1.4,1.4,0,0,0,32,30.5a1.91,1.91,0,0,1,.59-1.35.53.53,0,0,0,.18-.43,2.1,2.1,0,0,1,.5-1.53c.29-.38.68-.65,1-1a1,1,0,0,0,.27-.68c0-.23,0-.45,0-.65a.8.8,0,0,0-.2-.09,1.47,1.47,0,0,1-1.06-1,1,1,0,0,0-.25-.29,7,7,0,0,1-.7-.72c-.34-.47-.63-1-.95-1.49a1.1,1.1,0,0,0-.61-.54.88.88,0,0,1-.56-.56c0-.09-.09-.25-.16-.27a.92.92,0,0,1-.63-1,1.19,1.19,0,0,1-.79-.56,2.32,2.32,0,0,0-.56-.59,2.1,2.1,0,0,1-.83-1,1.69,1.69,0,0,0-.72-.95s-.11-.09-.14-.14a.78.78,0,0,0-.47-.32,1.09,1.09,0,0,1-.45-.32,7,7,0,0,1-.52-.63c-.23-.29-.43-.61-.63-.92a.58.58,0,0,0-.38-.34,1,1,0,0,1-.7-.86.9.9,0,0,0-.2-.47c-.23-.25-.47-.5-.72-.72a.41.41,0,0,0-.5-.07c-.36.14-.7.23-1.06.36a6.2,6.2,0,0,1-5.09-.45,1.83,1.83,0,0,1-.81-.68c-.25-.43-.47-.88-.74-1.31a4.43,4.43,0,0,1-.36-4.32c.27-.7.52-.83,1.26-.79a3.42,3.42,0,0,1,.47.07c.27,0-.18-.34.09-.29,0-.09.23,0,.18,0-.45-.29-.16-.32,0-.72a.88.88,0,0,1,1-.54,5.16,5.16,0,0,1,.63.16c.23-.81.54-1,1.37-.86l.09,0a.37.37,0,0,0,.38-.14,1.29,1.29,0,0,1,1.58-.09,1.38,1.38,0,0,0,.27.11,4.71,4.71,0,0,1,1.53.79,6.52,6.52,0,0,1,1.76,2.93,1.8,1.8,0,0,1,0,1.24,1,1,0,0,0-.07.52A2.24,2.24,0,0,1,24,8.36l-.41.81.07.11A57.53,57.53,0,0,0,30,14.84s.11.07.16.11A4.35,4.35,0,0,1,31.65,16s.11.07.16.11c.68.54,1.33,1.08,2,1.6.52.41,1,.81,1.58,1.22.2.16.43.29.63.45l2.84,2.14a1.63,1.63,0,0,0,1.42.36c.63-.14,1.26-.34,1.87-.52a1.48,1.48,0,0,0,.88-.72,1.81,1.81,0,0,1,.9-.79,4,4,0,0,0,.74-.43c.56-.38,1.13-.77,1.71-1.13.27-.18.59-.27.88-.43.56-.32,1.13-.65,1.67-1a19.21,19.21,0,0,0,3.24-2.3,7.35,7.35,0,0,1,3.18-1.8.81.81,0,0,0,.34-.18,2.46,2.46,0,0,1,1.08-.54c.36-.11.72-.2,1.06-.32,1.35-.52,2.68-1.06,4-1.58C63.56,9.57,65.3,8.94,67,8.33a20.86,20.86,0,0,0,3.9-1.76,4.1,4.1,0,0,1,1.71-.86,1.38,1.38,0,0,0,.27-.11c.41-.23.79-.45,1.19-.65a8.63,8.63,0,0,1,1.46-.68A15.25,15.25,0,0,0,79.26,2.5,2.75,2.75,0,0,1,80.5,2c1.6-.23,3.22-.45,4.82-.7A3.47,3.47,0,0,0,86.81.9h1c.2.07.43.16.63.25a.79.79,0,0,1,0,1.42,1.86,1.86,0,0,1-.29.16c-1.28.47-2.55,1-3.83,1.44a8,8,0,0,0-2.77,1.76,3.31,3.31,0,0,1-1.19.81A30.21,30.21,0,0,1,75.72,8a.45.45,0,0,0-.18.09,6.7,6.7,0,0,1,1,.11,9.31,9.31,0,0,1,1.73.61,1.28,1.28,0,0,1,.59,1.82,2.29,2.29,0,0,1-.36.59c-.32.36-.65.72-1,1.08l-.27.32a1,1,0,0,0,.59,0,11.93,11.93,0,0,1,2.66-.59,4.63,4.63,0,0,0,2.34-.86,2.86,2.86,0,0,1,.83-.41A9.94,9.94,0,0,1,88.2,10c2.57.14,5.14.11,7.7,0a6,6,0,0,1,3.76,1,1.52,1.52,0,0,1,.81,1.19.88.88,0,0,1,.72.81c.74,0,1,.43.63,1.17.25.45.25.45.07.95.43.68.38.9-.27,1.46a.29.29,0,0,0,0,.43s0,0,0,0l.34.41.14,0c.61,0,.77.2.92.79a6,6,0,0,0,.27.9,1.32,1.32,0,0,1,.11.88c.45.47.88.88,1.24,1.33a.69.69,0,0,1-.2,1.08l-.27.18c.07.2.07.47.18.59a1,1,0,0,1,.34,1,.92.92,0,0,1,1.08.32,1,1,0,0,1,0,1.15l1.06.11a2.16,2.16,0,0,1,.27-.72,2.84,2.84,0,0,1,.74-.5,1.19,1.19,0,0,1,.09-1.53c-.81-.95-.63-1.6.54-2.14.07-.74.36-1,1.13-1h.72v-.61c-.74-.38-.86-.61-.61-1.35-.07-.09-.14-.2-.23-.32-.34-.5-.29-.77.2-1.15a1.48,1.48,0,0,0,.34-.41,1,1,0,0,1,1-.56,3.06,3.06,0,0,1,1.08.27c1,.52,2,1.08,3,1.64a2,2,0,0,0,1,.34,7.09,7.09,0,0,1,.95.2l.34.07.95.2a7.45,7.45,0,0,1,.92.32,1.5,1.5,0,0,0,1.55-.16l.07-.07.09-.74c-.5-.47-1-.95-1.51-1.4a3.39,3.39,0,0,0-.83-.56,13.65,13.65,0,0,1-2.88-1.91,3.05,3.05,0,0,1-.68-.83,16.64,16.64,0,0,0-2-2.82c-.72-.83-1.44-1.67-2.21-2.48-.34-.36-.74-.68-1.1-1-.09-.07-.16-.16-.25-.23-.2-.23-.38-.47-.59-.72a1.51,1.51,0,0,1-.45-1,.64.64,0,0,1,.74-.65,8.48,8.48,0,0,1,1.69.45,3.23,3.23,0,0,0,.95.23c.72.07,1.44.16,2.16.25a19.77,19.77,0,0,1,2,.23,7.45,7.45,0,0,0,2.12.36,1.58,1.58,0,0,0,.56,0,.88.88,0,0,1,.9.18,1.22,1.22,0,0,0,.77.36,1.27,1.27,0,0,1,.27.09c.68.29,1.35.56,2,.9a5.77,5.77,0,0,1,1.08.74.87.87,0,0,0,.43.27.94.94,0,0,1,.7.5c0,.07.09.16.16.18a1,1,0,0,1,.7.68.22.22,0,0,0,.11.09,1.75,1.75,0,0,1,1,1.08c.5,0,.95,0,1.4,0a.56.56,0,0,1,.56.52.7.7,0,0,0,.14.29,4.63,4.63,0,0,0,.88.88,5,5,0,0,0,.81.52,2,2,0,0,1,.36.25c.47.41,1,.81,1.42,1.24a1.83,1.83,0,0,0,1.13.59,1.53,1.53,0,0,1,.45.16c.63.27,1.24.56,1.87.83a4.7,4.7,0,0,1,1.55,1,.94.94,0,0,0,.32.2,8.6,8.6,0,0,1,1.15.52,15.1,15.1,0,0,1,4.41,4.12.9.9,0,0,1-.2,1.26l-.25.14a3.59,3.59,0,0,1-.68.14,2.41,2.41,0,0,0,.36.81,2.07,2.07,0,0,0,1.22.81.61.61,0,0,1,.61.63c0,.09,0,.18,0,.25l.95.43.74-.61c-.27-.81-.2-1,.5-1.44a1.71,1.71,0,0,1,.25-.61,2.38,2.38,0,0,1,.68-.34c0-.65.14-.77.81-.81a.32.32,0,0,0,.27-.14c.29-.32.59-.65.86-1a1.26,1.26,0,0,1,.88-.59c.25-.36.36-.74.63-.92s.59-.72.95-1,.5-.59.77-.86.77-.68,1.08-1c1-1.1,1.94-2.18,3-3.2,1.24-1.17,2.43-2.34,3.65-3.51a2.55,2.55,0,0,1,.29-.23c-.25-.5-.47-.9-.7-1.33a4.8,4.8,0,0,1-.59-2,4.68,4.68,0,0,1,2.21-4.14,1.31,1.31,0,0,1,.47-.23c.7-.18,1.37-.38,2.07-.52a3.29,3.29,0,0,1,1.15,0,1.64,1.64,0,0,1,.7.32.5.5,0,0,1,.18.61.46.46,0,0,1-.45.38,1,1,0,0,0-.9.63.55.55,0,0,1-.79.25,1.05,1.05,0,0,1-.23-.11s-.07.09-.07.14a.7.7,0,0,1-.7.56.92.92,0,0,0-.43.18A3.45,3.45,0,0,0,161.45,6c.07.11.16.2.16.32,0,.29,0,.61,0,.9s.32.56.32.83.32.72.29,1.1c0,0,.07.07.09.11l.43.47h2.41a.82.82,0,0,1,.7-.86.57.57,0,0,0,.5-.47.24.24,0,0,1,.11-.2c.32-.23.23-.54.18-.83l-.14-.09a.71.71,0,0,1-.5-.79,1.06,1.06,0,0,1,.65-.79.64.64,0,0,1,.86.29.08.08,0,0,1,0,.07,1.56,1.56,0,0,0,.63.74,2.93,2.93,0,0,0,.52-.41c.47-.47.86-.43,1.22.14,0,0,.07.07.09.09ZM24.37,5.25c-.56.56-.63-1.49-1.35-1.4-.11,0-.65-.86-.72-.95a14.15,14.15,0,0,0-2.75-1.24c-.29.18-2.84.54-3.09.68s-1.37,2.32-1.71,2.3c0,.09.92,2,.95,2,.23.27.45.38.27.7s.07.34-.25.29.63.18.36.41c.36.16-.23.41.09.54.5-.34.54,0,1,.5.18.18,1.22.5,1.42.29s.7-.11,1-.14,1-.5,1.24-.5c.11-.56.74-.2,1.24-.34.11,0,.36-.7.47-.74C23.22,7.34,24.87,5.88,24.37,5.25ZM151.54,21.62c.36-.29.36-.29.16-.5Z"/><path class="cls-1" d="M95.16,143.41c-.27-.27-.59-.5-.61-.95,0-.09-.2-.18-.32-.25s-.11.09-.11.11c-.23.68-.72.86-1.28.41a1.22,1.22,0,0,0-.74-.36.62.62,0,0,1-.5-.5c0-.16-.07-.32-.11-.5a1.58,1.58,0,0,1-1.58-.83,2,2,0,0,1-1.55.32.55.55,0,0,1-.27-.09,2.59,2.59,0,0,0-1.58-.41,7.09,7.09,0,0,1-.95-.2c-.59-.18-1.15-.34-1.71-.54a2.76,2.76,0,0,1-.72-.38c-.86-.7-1.71-1.4-2.55-2.12a2,2,0,0,1-.72-1.91.63.63,0,0,0-.07-.41,1.32,1.32,0,0,1,0-1.51,1.72,1.72,0,0,0,.25-1.28c-.11-.77-.18-1.55-.25-2.32a1.13,1.13,0,0,1,0-.47,10.24,10.24,0,0,0,.59-2c.11-.45.25-.88.38-1.31a1.84,1.84,0,0,0-.59-2c-.47-.34-1-.63-1.46-.95a3.7,3.7,0,0,0-.5-.32,5,5,0,0,1-2.12-2.93c-.2-.68,0-1.08.68-1.24a2,2,0,0,0,1.33-1c.36-.59.72-.68,1.42-.5,1.15.29,2.3.59,3.45.83a1.56,1.56,0,0,0,.72,0,7.84,7.84,0,0,1,2.5-.29c1.53,0,3,0,4.57.09a1.75,1.75,0,0,1,.47.09c1.1.47,2.3.59,3.42.95a1.17,1.17,0,0,0,.95-.14,8.91,8.91,0,0,1,2.79-.95,22.19,22.19,0,0,1,2.43-.23,8.42,8.42,0,0,0,3.33-.61,2.25,2.25,0,0,1,1.49-.11,17.63,17.63,0,0,0,3.45.25c.47,0,.95,0,1.42,0a.92.92,0,0,1,.41.11,9.39,9.39,0,0,1,1.06,1.06,1.49,1.49,0,0,1-.18,2.27,6.56,6.56,0,0,1-1,.72,22.56,22.56,0,0,0-2.88,2.18c.23.45.43.9.65,1.33a4.93,4.93,0,0,1,.38,1.24,9.25,9.25,0,0,0,.47,1.53c0,.11.14.2.14.32a9.69,9.69,0,0,0,.41,1.78v.09c.34.32.36.79.56,1.17a2.29,2.29,0,0,1,0,2.48,1.27,1.27,0,0,0-.16.41,1.48,1.48,0,0,1-.52,1,7.27,7.27,0,0,1-.65.56c-.86.65-1.69,1.33-2.57,1.94a14.81,14.81,0,0,0-1.85,1.49,2.92,2.92,0,0,1-1.22.79c-.11,0-.2.16-.32.23s-.45.29-.7.45a.67.67,0,0,0-.18.09,10.65,10.65,0,0,1-2.68,1.44,1.45,1.45,0,0,0-.29.23c-.11.09-.18.25-.32.29a9.19,9.19,0,0,1-1.55.59,3.65,3.65,0,0,1-1.08-.14,1.35,1.35,0,0,1-.27,0,1.21,1.21,0,0,1-.45,1Zm.25-22.57c-.5.34-.7.36-1.06.09a1.58,1.58,0,0,0-.23-.18,1.61,1.61,0,0,0-1.19-.27,7.5,7.5,0,0,1-1.22.16.87.87,0,0,1-.5-.25.88.88,0,0,1-.18-.32,2.86,2.86,0,0,0-1-.07.45.45,0,0,1-.29,0,3.09,3.09,0,0,0-.83-.38,4.79,4.79,0,0,0-.95.14,9.42,9.42,0,0,1-1.6,0,9.43,9.43,0,0,0-1.94.34c-.07,0-.14.09-.2.11a1.83,1.83,0,0,1-.65.27,2.26,2.26,0,0,1-.68-.25c-.52.34-.59.34-1.08,0a.79.79,0,0,0-.29-.11c-.29,0-.61-.09-.9-.16a1.62,1.62,0,0,0-1.08.07,3.09,3.09,0,0,0,.29.45c.32.38.63.74.95,1.1a.94.94,0,0,0,.41.25l.52.14c.68.18.83.41.81,1.13a.94.94,0,0,1,.43,1c.29.16.61.25.61.63s-.29.47-.56.56a3.31,3.31,0,0,0,0,.47,4,4,0,0,1-.29,2,2.19,2.19,0,0,0-.23.83,18.73,18.73,0,0,1-.29,1.91c.41.45.43.59.14,1.17l-.07.23c0,.23-.07.43-.09.68a1.6,1.6,0,0,1-.16,2.23l-.09.07c0,.34.25.54.41.79s.27.59.38.9a.81.81,0,0,1,.9,0c.25.23.47.45.65.63.27,0,.52-.14.7,0s.29.34.47.56a.79.79,0,0,1,.77.43.33.33,0,0,0,.45.11l.09-.07a1,1,0,0,1,1-.14,6.33,6.33,0,0,0,.7.23,2.3,2.3,0,0,1,1.28.92c.09.11.18.27.29.43a1,1,0,0,1,1-.27A1.49,1.49,0,0,1,92,140l.45-.07a1.36,1.36,0,0,1,.43,0c.52,0,.7.23.72.77,0,.2.07.27.29.32v-.43a.64.64,0,0,1,.59-.7h.11a.71.71,0,0,1,.74.45,1.64,1.64,0,0,0,.59.65c.18-.41.27-.86.81-.9a1,1,0,0,1,1,.56.5.5,0,0,0,.2,0,.53.53,0,0,1,.18,0c.16-.56.27-.68.83-.68a5.09,5.09,0,0,0,.59,0,.47.47,0,0,0,.27-.11,7.6,7.6,0,0,0,.61-.81,1.06,1.06,0,0,1,.56-.43l.65-.14c.36-1.17.38-1.17,1.08-1.08.23-.25.45-.47.7-.7a5.88,5.88,0,0,0,1.15-.81,3.85,3.85,0,0,1,1-.68,3.59,3.59,0,0,1,.61-.27,1,1,0,0,0,.7-.61,1,1,0,0,1,.68-.65c.11,0,.25-.07.29-.16.25-.52.47-1,.7-1.55a2.2,2.2,0,0,1-.5-1.26,2.79,2.79,0,0,0-.2-.86,2.94,2.94,0,0,1-.27-1.08.41.41,0,0,0-.18-.41.86.86,0,0,1-.34-.68.65.65,0,0,0-.11-.41,1.61,1.61,0,0,1-.34-1.1,4,4,0,0,0-.5-1.76,2.12,2.12,0,0,1-.18-1.24,1.49,1.49,0,0,1,.27-.61c.32-.38.5-.88,1-1.1a6,6,0,0,1,1.69-1.69l-.09-.36c-.07,0-.11,0-.14,0a.92.92,0,0,1-1.35.07c-.47-.36-1.06-.34-1.51-.65l-.11.14a1.12,1.12,0,0,1-1.51.38.55.55,0,0,0-.5,0,1.21,1.21,0,0,1-1,.16.71.71,0,0,0-.83.18.93.93,0,0,1-1,.18,1.51,1.51,0,0,0-1-.07l-1.71.36a3.11,3.11,0,0,0-.61.18c-.27.14-.52.29-.86.5v1.55l-.09,0Z"/><path class="cls-1" d="M21.06,82.35c.41,0,.83.09,1.24.16a1.85,1.85,0,0,1,1.1.43l1.26-.36L24.15,82a9.17,9.17,0,0,1,2.91.61,1.51,1.51,0,0,0,1.42.2,1,1,0,0,1,.56,0,8.33,8.33,0,0,1,2.61.88,5.82,5.82,0,0,0,1,.5,2.32,2.32,0,0,1,1.1.92.78.78,0,0,0,.27.27,3.37,3.37,0,0,1,.29.25,1.47,1.47,0,0,0,.65.63.44.44,0,0,1,.2.2c0,.09.11.2.09.27-.14.47.43.86.16,1.35a1.05,1.05,0,0,0-.07.38c0,.36-.07.74-.09,1.13l.47.18a.76.76,0,0,1,.5.77c0,.32-.27.52-.68.61a.44.44,0,0,0-.16,0l-.09,0c-.43.72-.63.79-1.35.5a1.68,1.68,0,0,0-.27.16,2.82,2.82,0,0,1-1.46.47l-1.8.16-.68,0a1.19,1.19,0,0,1-1.35-.72,1,1,0,0,1-.81-.29.77.77,0,0,0-.79-.11,1.38,1.38,0,0,1-1.35-.14.5.5,0,0,0-.32,0,.78.78,0,0,1-.7-.11.7.7,0,0,0-.23-.11l-1.94-.54-.09.34q.3.44.68.88a1.07,1.07,0,0,0,.5.27c.72.16,1.46.29,2.21.38a12.64,12.64,0,0,0,1.31,0,1.41,1.41,0,0,1,1.24.45.86.86,0,0,0,.56.25,8.62,8.62,0,0,1,1.31.36.92.92,0,0,1,.68,1,.53.53,0,0,0,.07.27,3,3,0,0,1,.38,1.69,1.36,1.36,0,0,0,.29,1,1.19,1.19,0,0,1,.2.68c0,.54,0,1.08.09,1.6a5.32,5.32,0,0,0,.18,1,4.69,4.69,0,0,1,.23,1.58.5.5,0,0,0,.14.34,1,1,0,0,1,.27.86,2.36,2.36,0,0,0,.23,1.46,1.81,1.81,0,0,1,.11,1.24.69.69,0,0,0,0,.43,7,7,0,0,1,.32,1.91,5,5,0,0,0,.36,1.89,1.62,1.62,0,0,1-.14,1.71.74.74,0,0,0,0,.88,1.14,1.14,0,0,1,.2,1.13c-.09.29,0,.68-.2.95.7.45.56.72.23,1.22l.11.9c.52.47.54.72,0,1.19l-.23-.32a.66.66,0,0,1-.83-.65c0-.56-.43-.81-.7-1.17-.07-.09-.32,0-.54-.09a2,2,0,0,1-.09-1c0-.47.09-.95.07-1.4a51.22,51.22,0,0,0-.68-5.86c-.2-1.15-.29-2.32-.45-3.47a7,7,0,0,0-.25-1.19,20.89,20.89,0,0,1-.74-3.72c-.16-1.22-.25-2.43-.38-3.63-.07-.72-.11-.79-.83-.9-1-.16-1.94-.27-2.88-.38l-1.6-.18A5.9,5.9,0,0,1,20.72,93c-.27-.2-.59-.34-.88-.52a1,1,0,0,1-.43-.43,1.36,1.36,0,0,0-.43-.52,8.52,8.52,0,0,1-2.23-2.43,4.19,4.19,0,0,0-.47-.63,3.46,3.46,0,0,1-.27-.29,4.29,4.29,0,0,0-1.15-1.15,1.24,1.24,0,0,1,.25-2.18,2.69,2.69,0,0,1,3.11.23l1.53,1.35a3,3,0,0,0,.56.36c1.15.59,2.32,1.15,3.47,1.76a3.29,3.29,0,0,0,2,.38,4.43,4.43,0,0,1,2.09.27l2.79.88a2.85,2.85,0,0,0,1.62.07.59.59,0,0,0,.52-.61,5.94,5.94,0,0,1,0-.63c0-.29.09-.61.14-1a.44.44,0,0,1-.11-.2c-.09-.45-.47-.56-.83-.7L32,87c-.54-.14-.9-.41-.81-1l-1.78-.83a1.71,1.71,0,0,0-.47-.07c-2.12,0-4.23,0-6.33-.11a12.87,12.87,0,0,1-1.85-.2A2.71,2.71,0,0,1,19.24,84,5.36,5.36,0,0,0,18,83.22a9.34,9.34,0,0,1-2.46-1.73,6.08,6.08,0,0,1-.61-.88c-.11-.16-.23-.32-.32-.47s-.27-.43-.43-.65a1.57,1.57,0,0,0-.29-.36,3,3,0,0,1-1.15-2.27,1.28,1.28,0,0,0-.16-.5l-.07-.14c-.18-.27.14-.61-.14-.88s-.09-.56-.14-.88a1.68,1.68,0,0,1,.45-1.28,4.87,4.87,0,0,1,.61-.56,1,1,0,0,1,.43-1.08.62.62,0,0,0,.18-.34,2.37,2.37,0,0,1,.65-1.42l-.34-.25a.68.68,0,0,1-.18-.95.75.75,0,0,1,.59-.29,1.2,1.2,0,0,1,1.28,1.15,1.49,1.49,0,0,1,0,.32c0,.2-.09.41-.11.59s0,0,0,.07c.29,0,.59.16.65.5a.8.8,0,0,1-.36.86,5.34,5.34,0,0,1-.79.43,3.59,3.59,0,0,1-.34.65,4.72,4.72,0,0,1-.68.5c.23.52.7,1.08.11,1.69a1,1,0,0,0,.54.74.64.64,0,0,1,.29.72.67.67,0,0,0,.43.86h0c.32.14.34.29.23.81.16.11.34.23.5.36A2.78,2.78,0,0,1,17.25,80a.84.84,0,0,0,.38.54l2,1.08a.55.55,0,0,0,.27,0c.68-.23.9-.09,1,.63A.16.16,0,0,1,21.06,82.35Z"/><path class="cls-1" d="M94.17,96.49a2.82,2.82,0,0,1,2.23.95c.59,0,1.15.09,1.69.09a.57.57,0,0,0,.34-.14c.23-.2.41-.43.61-.63a1.86,1.86,0,0,1,.88-.47,1.22,1.22,0,0,0,.86-.63,1.51,1.51,0,0,1,.9-.88,2.82,2.82,0,0,0-.9-.81,1.87,1.87,0,0,1-.86-1.08.84.84,0,0,1,.2-.95,10.56,10.56,0,0,1,1.22-1,1.44,1.44,0,0,1,.74-.23,3.67,3.67,0,0,1,2.07.43,1.37,1.37,0,0,0,.41.11c.29,0,.59.09.86.16a1.85,1.85,0,0,1,1.4,1.1,4.07,4.07,0,0,0,.43.65,2.08,2.08,0,0,1,.43,2,3.9,3.9,0,0,1-1.22,2.07c-.74.7-1.53,1.35-2.34,2a4.17,4.17,0,0,1-1.67.77A18.48,18.48,0,0,0,99.35,101a7.45,7.45,0,0,1-4.64.36,15.69,15.69,0,0,1-2.48-.74,24.9,24.9,0,0,0-3.63-1.08,18.24,18.24,0,0,1-2.23-.68,3.49,3.49,0,0,1-.65-.32,1,1,0,0,1-.52-1.08,4.15,4.15,0,0,1,.11-.56c.38-1.08.77-2.14,1.13-3.22a1.35,1.35,0,0,1,1.15-1c.27,0,.54-.11.81-.18A4.17,4.17,0,0,0,90,91.87a4.1,4.1,0,0,1,2.77-.52,1.79,1.79,0,0,1,1.17.81.74.74,0,0,0,.54.34c.63.09.83.54.56,1.1a4.18,4.18,0,0,1-.25.43,2.22,2.22,0,0,0-.41,1.17,2.2,2.2,0,0,1-.14.52ZM88.36,96l.16.65,1,.47a1.38,1.38,0,0,0,.27.11c1,.27,2,.56,3,.81a5.89,5.89,0,0,0,.72.14,1.29,1.29,0,0,0-.74-.79c-.59-.27-.68-.59-.45-1.17a1.53,1.53,0,0,1,.07-2.07H91.17c-.29.86-1.1.65-1.8.7A1.5,1.5,0,0,1,88.36,96Zm16.89-.47,0-1.13a2.33,2.33,0,0,1-1.87-.47c.07.45.32.81.07,1.19a1.19,1.19,0,0,1-.95.63.92.92,0,0,0,1.28-.2.7.7,0,0,1,1-.23Z"/><path class="cls-1" d="M23.11,4.82c.5.65-.54,2.09-1.26,2.43-.11,0,.9.54.79.56-.5.14-.79-.29-.9.27-.23,0-.38.95-.56,1a1.8,1.8,0,0,0-.95.52,3.22,3.22,0,0,1-1.87.25c-.41-.45-.81-1.67-1.31-1.31-.32-.14-1.33-.25-1.69-.41.27-.23-.27-.65,0-.61s-.74-.14-.56-.45.18-.18.27-.52c.18-.63,2.21-4.91,3.94-4.82S22.84,5.09,23.11,4.82Z"/><path class="cls-1" d="M151.54,21.62l.16-.5C151.88,21.33,151.88,21.33,151.54,21.62Z"/><path class="cls-2" d="M95.41,120.84l1.1,1.51.09,0v-1.55c.34-.18.59-.36.86-.5a3.11,3.11,0,0,1,.61-.18c.56-.14,1.15-.25,1.71-.36a1.37,1.37,0,0,1,1,.07.86.86,0,0,0,1-.18.71.71,0,0,1,.83-.18,1.22,1.22,0,0,0,1-.16.55.55,0,0,1,.5,0,1.12,1.12,0,0,0,1.51-.38l.11-.14c.45.34,1.06.29,1.51.65a.92.92,0,0,0,1.35-.07s.07,0,.11,0l.09.36a6.69,6.69,0,0,0-1.69,1.69c-.5.23-.68.72-1,1.1a1.49,1.49,0,0,0-.27.61,2.12,2.12,0,0,0,.18,1.24,4,4,0,0,1,.5,1.76,1.65,1.65,0,0,0,.34,1.1.92.92,0,0,1,.11.41.8.8,0,0,0,.34.68.41.41,0,0,1,.18.41,2.94,2.94,0,0,0,.27,1.08,2.79,2.79,0,0,1,.2.86,2.2,2.2,0,0,0,.5,1.26c-.23.52-.45,1-.7,1.55,0,.09-.18.11-.29.16a1,1,0,0,0-.68.65.92.92,0,0,1-.7.61,2.49,2.49,0,0,0-.61.27,3.85,3.85,0,0,0-1,.68,4.86,4.86,0,0,1-1.15.81c-.25.23-.47.45-.7.7-.7-.09-.72-.07-1.08,1.08a5.58,5.58,0,0,0-.65.14.84.84,0,0,0-.56.43,9.5,9.5,0,0,1-.61.81.49.49,0,0,1-.27.11,5.09,5.09,0,0,1-.59,0c-.56,0-.7.11-.83.68a.42.42,0,0,1-.18,0l-.2,0a1,1,0,0,0-1-.56c-.52,0-.63.5-.81.9a1.64,1.64,0,0,1-.59-.65.7.7,0,0,0-.74-.45.64.64,0,0,0-.7.59V141c-.2,0-.27-.11-.29-.32,0-.54-.2-.72-.72-.77h-.43l-.45.07a1.49,1.49,0,0,0-.95-.61,1,1,0,0,0-1,.27l-.29-.43a2.41,2.41,0,0,0-1.28-.92c-.23,0-.45-.16-.7-.23a1,1,0,0,0-1,.14.32.32,0,0,1-.45,0,.31.31,0,0,1-.07-.09.81.81,0,0,0-.77-.43c-.18-.23-.29-.47-.47-.56s-.43,0-.7,0a8.92,8.92,0,0,0-.65-.63.85.85,0,0,0-.9,0,6.36,6.36,0,0,0-.38-.9c-.16-.27-.41-.45-.41-.79a1.58,1.58,0,0,0,.34-2.21l-.07-.09c0-.25.07-.47.09-.68a.43.43,0,0,1,.07-.23c.29-.61.27-.72-.14-1.17a14.06,14.06,0,0,0,.29-1.91,2.08,2.08,0,0,1,.23-.83,3.89,3.89,0,0,0,.29-2,3.3,3.3,0,0,1,0-.47c.27-.09.56-.2.56-.56s-.34-.47-.61-.63a1,1,0,0,0-.43-1c0-.72-.14-.95-.81-1.13a4.39,4.39,0,0,1-.52-.14.94.94,0,0,1-.41-.25,14.42,14.42,0,0,1-.95-1.1,3.09,3.09,0,0,1-.29-.45,1.49,1.49,0,0,1,1.08-.07c.29,0,.61.09.9.16a.66.66,0,0,1,.29.11c.5.36.59.36,1.08,0a2.05,2.05,0,0,0,.68.25,1.83,1.83,0,0,0,.65-.27c.07,0,.14-.11.2-.11a9.43,9.43,0,0,1,1.94-.34,12.76,12.76,0,0,0,1.6,0c.32,0,.65-.18.95-.14a3.09,3.09,0,0,1,.83.38.43.43,0,0,0,.29,0,2.38,2.38,0,0,1,1,.07,1.44,1.44,0,0,0,.18.32.87.87,0,0,0,.5.25,11.23,11.23,0,0,0,1.22-.16,1.59,1.59,0,0,1,1.19.27,2,2,0,0,1,.23.18C94.71,121.2,94.94,121.18,95.41,120.84Z"/><path class="cls-1" d="M88.36,96c.61-.16.83-.63,1-1.17.68,0,1.49.16,1.8-.7h1.15a1.53,1.53,0,0,0-.07,2.07c-.23.61-.14.92.45,1.17a1.23,1.23,0,0,1,.74.79,5.88,5.88,0,0,1-.72-.14l-3-.81a1.38,1.38,0,0,1-.27-.11l-1-.47Z"/><path class="cls-1" d="M105.25,95.57l-.36-.18a.71.71,0,0,0-1,.23,1,1,0,0,1-1.28.2,1.28,1.28,0,0,0,.95-.63c.23-.38,0-.74-.07-1.19a2.44,2.44,0,0,0,1.87.47Z"/></g></g><text class="cls-3" transform="translate(211.67 113.02)">PERDIEM</text></g></g></svg>